<?xml version="1.0" encoding="utf-8" standalone="no"?>
<!DOCTYPE svg PUBLIC "-//W3C//DTD SVG 1.1//EN"
  "http://www.w3.org/Graphics/SVG/1.1/DTD/svg11.dtd">
<!-- Created with matplotlib (https://matplotlib.org/) -->
<svg height="216pt" version="1.1" viewBox="0 0 288 216" width="288pt" xmlns="http://www.w3.org/2000/svg" xmlns:xlink="http://www.w3.org/1999/xlink">
 <metadata>
  <rdf:RDF xmlns:cc="http://creativecommons.org/ns#" xmlns:dc="http://purl.org/dc/elements/1.1/" xmlns:rdf="http://www.w3.org/1999/02/22-rdf-syntax-ns#">
   <cc:Work>
    <dc:type rdf:resource="http://purl.org/dc/dcmitype/StillImage"/>
    <dc:date>2021-11-15T12:46:57.455195</dc:date>
    <dc:format>image/svg+xml</dc:format>
    <dc:creator>
     <cc:Agent>
      <dc:title>Matplotlib v3.3.1, https://matplotlib.org/</dc:title>
     </cc:Agent>
    </dc:creator>
   </cc:Work>
  </rdf:RDF>
 </metadata>
 <defs>
  <style type="text/css">*{stroke-linecap:butt;stroke-linejoin:round;}</style>
 </defs>
 <g id="figure_1">
  <g id="patch_1">
   <path d="M 0 216 
L 288 216 
L 288 0 
L 0 0 
z
" style="fill:#ffffff;"/>
  </g>
  <g id="axes_1">
   <g id="patch_2">
    <path d="M 43.21399 180.201635 
L 196.44976 180.201635 
L 196.44976 18.24024 
L 43.21399 18.24024 
z
" style="fill:#ffffff;"/>
   </g>
   <g id="matplotlib.axis_1">
    <g id="xtick_1">
     <g id="line2d_1">
      <path clip-path="url(#pc89d87c1bc)" d="M 44.122502 180.201635 
L 44.122502 18.24024 
" style="fill:none;stroke:#d3d3d3;stroke-linecap:square;stroke-width:0.3;"/>
     </g>
     <g id="line2d_2">
      <defs>
       <path d="M 0 0 
L 0 3.5 
" id="m90feaa83fc" style="stroke:#000000;stroke-width:0.8;"/>
      </defs>
      <g>
       <use style="stroke:#000000;stroke-width:0.8;" x="44.122502" xlink:href="#m90feaa83fc" y="180.201635"/>
      </g>
     </g>
     <g id="text_1">
      <!-- 0 -->
      <g transform="translate(40.941252 194.800072)scale(0.1 -0.1)">
       <defs>
        <path d="M 31.78125 3.421875 
Q 39.265625 3.421875 42.96875 11.625 
Q 46.6875 19.828125 46.6875 36.375 
Q 46.6875 52.984375 42.96875 61.1875 
Q 39.265625 69.390625 31.78125 69.390625 
Q 24.3125 69.390625 20.59375 61.1875 
Q 16.890625 52.984375 16.890625 36.375 
Q 16.890625 19.828125 20.59375 11.625 
Q 24.3125 3.421875 31.78125 3.421875 
z
M 31.78125 -1.421875 
Q 19.921875 -1.421875 13.25 8.53125 
Q 6.59375 18.5 6.59375 36.375 
Q 6.59375 54.296875 13.25 64.25 
Q 19.921875 74.21875 31.78125 74.21875 
Q 43.703125 74.21875 50.34375 64.25 
Q 56.984375 54.296875 56.984375 36.375 
Q 56.984375 18.5 50.34375 8.53125 
Q 43.703125 -1.421875 31.78125 -1.421875 
z
" id="DejaVuSerif-48"/>
       </defs>
       <use xlink:href="#DejaVuSerif-48"/>
      </g>
     </g>
    </g>
    <g id="xtick_2">
     <g id="line2d_3">
      <path clip-path="url(#pc89d87c1bc)" d="M 104.69 180.201635 
L 104.69 18.24024 
" style="fill:none;stroke:#d3d3d3;stroke-linecap:square;stroke-width:0.3;"/>
     </g>
     <g id="line2d_4">
      <g>
       <use style="stroke:#000000;stroke-width:0.8;" x="104.69" xlink:href="#m90feaa83fc" y="180.201635"/>
      </g>
     </g>
     <g id="text_2">
      <!-- 100 -->
      <g transform="translate(95.14625 194.800072)scale(0.1 -0.1)">
       <defs>
        <path d="M 14.203125 0 
L 14.203125 5.171875 
L 26.90625 5.171875 
L 26.90625 65.828125 
L 12.203125 56.296875 
L 12.203125 62.703125 
L 29.984375 74.21875 
L 36.71875 74.21875 
L 36.71875 5.171875 
L 49.421875 5.171875 
L 49.421875 0 
z
" id="DejaVuSerif-49"/>
       </defs>
       <use xlink:href="#DejaVuSerif-49"/>
       <use x="63.623047" xlink:href="#DejaVuSerif-48"/>
       <use x="127.246094" xlink:href="#DejaVuSerif-48"/>
      </g>
     </g>
    </g>
    <g id="xtick_3">
     <g id="line2d_5">
      <path clip-path="url(#pc89d87c1bc)" d="M 165.257499 180.201635 
L 165.257499 18.24024 
" style="fill:none;stroke:#d3d3d3;stroke-linecap:square;stroke-width:0.3;"/>
     </g>
     <g id="line2d_6">
      <g>
       <use style="stroke:#000000;stroke-width:0.8;" x="165.257499" xlink:href="#m90feaa83fc" y="180.201635"/>
      </g>
     </g>
     <g id="text_3">
      <!-- 200 -->
      <g transform="translate(155.713749 194.800072)scale(0.1 -0.1)">
       <defs>
        <path d="M 12.796875 55.515625 
L 7.328125 55.515625 
L 7.328125 68.5 
Q 12.546875 71.296875 17.84375 72.75 
Q 23.140625 74.21875 28.21875 74.21875 
Q 39.59375 74.21875 46.1875 68.703125 
Q 52.78125 63.1875 52.78125 53.71875 
Q 52.78125 43.015625 37.84375 28.125 
Q 36.671875 27 36.078125 26.421875 
L 17.671875 8.015625 
L 48.09375 8.015625 
L 48.09375 17 
L 53.8125 17 
L 53.8125 0 
L 6.78125 0 
L 6.78125 5.328125 
L 28.90625 27.390625 
Q 36.234375 34.71875 39.359375 40.84375 
Q 42.484375 46.96875 42.484375 53.71875 
Q 42.484375 61.078125 38.640625 65.234375 
Q 34.8125 69.390625 28.078125 69.390625 
Q 21.09375 69.390625 17.28125 65.921875 
Q 13.484375 62.453125 12.796875 55.515625 
z
" id="DejaVuSerif-50"/>
       </defs>
       <use xlink:href="#DejaVuSerif-50"/>
       <use x="63.623047" xlink:href="#DejaVuSerif-48"/>
       <use x="127.246094" xlink:href="#DejaVuSerif-48"/>
      </g>
     </g>
    </g>
    <g id="text_4">
     <!-- $|S|$ -->
     <g transform="translate(111.671875 210.11976)scale(0.12 -0.12)">
      <defs>
       <path d="M 20.796875 76.421875 
L 20.796875 -23.578125 
L 12.890625 -23.578125 
L 12.890625 76.421875 
z
" id="DejaVuSerif-124"/>
       <path d="M 2.875 3.515625 
L 6.109375 20.125 
L 11.71875 20.0625 
Q 10.359375 11.765625 14.140625 7.78125 
Q 17.921875 3.8125 27.25 3.8125 
Q 35.9375 3.8125 41.1875 7.25 
Q 46.4375 10.6875 47.703125 17.28125 
Q 48.734375 22.5625 46.5 25.390625 
Q 44.28125 28.21875 35.9375 30.90625 
L 26.90625 33.796875 
Q 17.046875 36.96875 13.703125 41.703125 
Q 10.359375 46.4375 11.96875 54.6875 
Q 13.765625 63.96875 21.359375 69.09375 
Q 28.953125 74.21875 40.875 74.21875 
Q 45.953125 74.21875 51.78125 73.109375 
Q 57.625 72.015625 64.015625 69.921875 
L 61.03125 54.390625 
L 55.515625 54.390625 
Q 56.15625 62.109375 52.515625 65.546875 
Q 48.875 69 40.046875 69 
Q 32.328125 69 27.6875 65.84375 
Q 23.046875 62.703125 21.875 56.6875 
Q 20.84375 51.46875 23.28125 48.484375 
Q 25.734375 45.515625 35.015625 42.578125 
L 43.5 39.890625 
Q 52.828125 36.921875 56.140625 32.296875 
Q 59.46875 27.6875 57.953125 19.921875 
Q 55.90625 9.328125 48.0625 3.953125 
Q 40.234375 -1.421875 26.8125 -1.421875 
Q 20.796875 -1.421875 14.8125 -0.1875 
Q 8.84375 1.03125 2.875 3.515625 
z
" id="DejaVuSerif-Italic-83"/>
      </defs>
      <use transform="translate(0 0.578125)" xlink:href="#DejaVuSerif-124"/>
      <use transform="translate(33.691406 0.578125)" xlink:href="#DejaVuSerif-Italic-83"/>
      <use transform="translate(102.197266 0.578125)" xlink:href="#DejaVuSerif-124"/>
     </g>
    </g>
   </g>
   <g id="matplotlib.axis_2">
    <g id="ytick_1">
     <g id="line2d_7">
      <path clip-path="url(#pc89d87c1bc)" d="M 43.21399 158.044314 
L 196.44976 158.044314 
" style="fill:none;stroke:#d3d3d3;stroke-linecap:square;stroke-width:0.3;"/>
     </g>
     <g id="line2d_8">
      <defs>
       <path d="M 0 0 
L -3.5 0 
" id="mad2fc15895" style="stroke:#000000;stroke-width:0.8;"/>
      </defs>
      <g>
       <use style="stroke:#000000;stroke-width:0.8;" x="43.21399" xlink:href="#mad2fc15895" y="158.044314"/>
      </g>
     </g>
     <g id="text_5">
      <!-- $\mathdefault{10^{2}}$ -->
      <g transform="translate(18.61399 161.843533)scale(0.1 -0.1)">
       <use transform="translate(0 0.7125)" xlink:href="#DejaVuSerif-49"/>
       <use transform="translate(63.623047 0.7125)" xlink:href="#DejaVuSerif-48"/>
       <use transform="translate(128.154453 37.046875)scale(0.7)" xlink:href="#DejaVuSerif-50"/>
      </g>
     </g>
    </g>
    <g id="ytick_2">
     <g id="line2d_9">
      <path clip-path="url(#pc89d87c1bc)" d="M 43.21399 132.695167 
L 196.44976 132.695167 
" style="fill:none;stroke:#d3d3d3;stroke-linecap:square;stroke-width:0.3;"/>
     </g>
     <g id="line2d_10">
      <g>
       <use style="stroke:#000000;stroke-width:0.8;" x="43.21399" xlink:href="#mad2fc15895" y="132.695167"/>
      </g>
     </g>
     <g id="text_6">
      <!-- $\mathdefault{10^{3}}$ -->
      <g transform="translate(18.61399 136.494386)scale(0.1 -0.1)">
       <defs>
        <path d="M 9.71875 69.828125 
Q 15.4375 71.96875 20.671875 73.09375 
Q 25.921875 74.21875 30.515625 74.21875 
Q 41.21875 74.21875 47.21875 69.59375 
Q 53.21875 64.984375 53.21875 56.78125 
Q 53.21875 50.203125 49.0625 45.78125 
Q 44.921875 41.359375 37.3125 39.796875 
Q 46.296875 38.53125 51.25 33.28125 
Q 56.203125 28.03125 56.203125 19.671875 
Q 56.203125 9.46875 49.34375 4.015625 
Q 42.484375 -1.421875 29.59375 -1.421875 
Q 23.875 -1.421875 18.421875 -0.1875 
Q 12.984375 1.03125 7.625 3.515625 
L 7.625 17.671875 
L 13.09375 17.671875 
Q 13.578125 10.640625 17.828125 7.03125 
Q 22.078125 3.421875 29.78125 3.421875 
Q 37.25 3.421875 41.578125 7.734375 
Q 45.90625 12.0625 45.90625 19.578125 
Q 45.90625 28.171875 41.453125 32.59375 
Q 37.015625 37.015625 28.421875 37.015625 
L 23.78125 37.015625 
L 23.78125 42 
L 26.21875 42 
Q 34.765625 42 39.03125 45.53125 
Q 43.3125 49.078125 43.3125 56.203125 
Q 43.3125 62.59375 39.796875 65.984375 
Q 36.28125 69.390625 29.6875 69.390625 
Q 23.09375 69.390625 19.453125 66.265625 
Q 15.828125 63.140625 15.1875 56.984375 
L 9.71875 56.984375 
z
" id="DejaVuSerif-51"/>
       </defs>
       <use transform="translate(0 0.7125)" xlink:href="#DejaVuSerif-49"/>
       <use transform="translate(63.623047 0.7125)" xlink:href="#DejaVuSerif-48"/>
       <use transform="translate(128.154453 37.046875)scale(0.7)" xlink:href="#DejaVuSerif-51"/>
      </g>
     </g>
    </g>
    <g id="ytick_3">
     <g id="line2d_11">
      <path clip-path="url(#pc89d87c1bc)" d="M 43.21399 107.34602 
L 196.44976 107.34602 
" style="fill:none;stroke:#d3d3d3;stroke-linecap:square;stroke-width:0.3;"/>
     </g>
     <g id="line2d_12">
      <g>
       <use style="stroke:#000000;stroke-width:0.8;" x="43.21399" xlink:href="#mad2fc15895" y="107.34602"/>
      </g>
     </g>
     <g id="text_7">
      <!-- $\mathdefault{10^{4}}$ -->
      <g transform="translate(18.61399 111.145239)scale(0.1 -0.1)">
       <defs>
        <path d="M 34.90625 24.703125 
L 34.90625 63.484375 
L 10.015625 24.703125 
z
M 56.390625 0 
L 23.1875 0 
L 23.1875 5.171875 
L 34.90625 5.171875 
L 34.90625 19.484375 
L 3.078125 19.484375 
L 3.078125 24.8125 
L 35.015625 74.21875 
L 44.671875 74.21875 
L 44.671875 24.703125 
L 58.59375 24.703125 
L 58.59375 19.484375 
L 44.671875 19.484375 
L 44.671875 5.171875 
L 56.390625 5.171875 
z
" id="DejaVuSerif-52"/>
       </defs>
       <use transform="translate(0 0.7125)" xlink:href="#DejaVuSerif-49"/>
       <use transform="translate(63.623047 0.7125)" xlink:href="#DejaVuSerif-48"/>
       <use transform="translate(128.154453 37.046875)scale(0.7)" xlink:href="#DejaVuSerif-52"/>
      </g>
     </g>
    </g>
    <g id="ytick_4">
     <g id="line2d_13">
      <path clip-path="url(#pc89d87c1bc)" d="M 43.21399 81.996873 
L 196.44976 81.996873 
" style="fill:none;stroke:#d3d3d3;stroke-linecap:square;stroke-width:0.3;"/>
     </g>
     <g id="line2d_14">
      <g>
       <use style="stroke:#000000;stroke-width:0.8;" x="43.21399" xlink:href="#mad2fc15895" y="81.996873"/>
      </g>
     </g>
     <g id="text_8">
      <!-- $\mathdefault{10^{5}}$ -->
      <g transform="translate(18.61399 85.796092)scale(0.1 -0.1)">
       <defs>
        <path d="M 50.296875 72.90625 
L 50.296875 64.890625 
L 16.890625 64.890625 
L 16.890625 44 
Q 19.4375 45.75 22.828125 46.625 
Q 26.21875 47.515625 30.421875 47.515625 
Q 42.234375 47.515625 49.0625 40.96875 
Q 55.90625 34.421875 55.90625 23.09375 
Q 55.90625 11.53125 49 5.046875 
Q 42.09375 -1.421875 29.59375 -1.421875 
Q 24.5625 -1.421875 19.28125 -0.1875 
Q 14.015625 1.03125 8.5 3.515625 
L 8.5 17.671875 
L 14.015625 17.671875 
Q 14.453125 10.75 18.421875 7.078125 
Q 22.40625 3.421875 29.59375 3.421875 
Q 37.3125 3.421875 41.453125 8.5 
Q 45.609375 13.578125 45.609375 23.09375 
Q 45.609375 32.5625 41.484375 37.609375 
Q 37.359375 42.671875 29.59375 42.671875 
Q 25.203125 42.671875 21.84375 41.109375 
Q 18.5 39.546875 15.921875 36.28125 
L 11.71875 36.28125 
L 11.71875 72.90625 
z
" id="DejaVuSerif-53"/>
       </defs>
       <use transform="translate(0 0.63125)" xlink:href="#DejaVuSerif-49"/>
       <use transform="translate(63.623047 0.63125)" xlink:href="#DejaVuSerif-48"/>
       <use transform="translate(128.154453 36.965625)scale(0.7)" xlink:href="#DejaVuSerif-53"/>
      </g>
     </g>
    </g>
    <g id="ytick_5">
     <g id="line2d_15">
      <path clip-path="url(#pc89d87c1bc)" d="M 43.21399 56.647726 
L 196.44976 56.647726 
" style="fill:none;stroke:#d3d3d3;stroke-linecap:square;stroke-width:0.3;"/>
     </g>
     <g id="line2d_16">
      <g>
       <use style="stroke:#000000;stroke-width:0.8;" x="43.21399" xlink:href="#mad2fc15895" y="56.647726"/>
      </g>
     </g>
     <g id="text_9">
      <!-- $\mathdefault{10^{6}}$ -->
      <g transform="translate(18.61399 60.446945)scale(0.1 -0.1)">
       <defs>
        <path d="M 32.71875 3.421875 
Q 39.59375 3.421875 43.296875 8.46875 
Q 47.015625 13.53125 47.015625 23 
Q 47.015625 32.46875 43.296875 37.515625 
Q 39.59375 42.578125 32.71875 42.578125 
Q 25.734375 42.578125 22.0625 37.6875 
Q 18.40625 32.8125 18.40625 23.578125 
Q 18.40625 13.875 22.109375 8.640625 
Q 25.828125 3.421875 32.71875 3.421875 
z
M 16.796875 40.140625 
Q 20.125 43.796875 24.3125 45.59375 
Q 28.515625 47.40625 33.796875 47.40625 
Q 44.671875 47.40625 51 40.859375 
Q 57.328125 34.328125 57.328125 23 
Q 57.328125 11.921875 50.515625 5.25 
Q 43.703125 -1.421875 32.328125 -1.421875 
Q 19.96875 -1.421875 13.328125 7.78125 
Q 6.6875 17 6.6875 34.078125 
Q 6.6875 53.21875 14.546875 63.71875 
Q 22.40625 74.21875 36.71875 74.21875 
Q 40.578125 74.21875 44.828125 73.484375 
Q 49.078125 72.75 53.515625 71.296875 
L 53.515625 59.28125 
L 48 59.28125 
Q 47.40625 64.203125 44.234375 66.796875 
Q 41.0625 69.390625 35.6875 69.390625 
Q 26.21875 69.390625 21.578125 62.203125 
Q 16.9375 55.03125 16.796875 40.140625 
z
" id="DejaVuSerif-54"/>
       </defs>
       <use transform="translate(0 0.7125)" xlink:href="#DejaVuSerif-49"/>
       <use transform="translate(63.623047 0.7125)" xlink:href="#DejaVuSerif-48"/>
       <use transform="translate(128.154453 37.046875)scale(0.7)" xlink:href="#DejaVuSerif-54"/>
      </g>
     </g>
    </g>
    <g id="ytick_6">
     <g id="line2d_17">
      <path clip-path="url(#pc89d87c1bc)" d="M 43.21399 31.298579 
L 196.44976 31.298579 
" style="fill:none;stroke:#d3d3d3;stroke-linecap:square;stroke-width:0.3;"/>
     </g>
     <g id="line2d_18">
      <g>
       <use style="stroke:#000000;stroke-width:0.8;" x="43.21399" xlink:href="#mad2fc15895" y="31.298579"/>
      </g>
     </g>
     <g id="text_10">
      <!-- $\mathdefault{10^{7}}$ -->
      <g transform="translate(18.61399 35.097798)scale(0.1 -0.1)">
       <defs>
        <path d="M 56.390625 67.921875 
L 27.875 0 
L 20.609375 0 
L 47.796875 64.890625 
L 14.109375 64.890625 
L 14.109375 55.90625 
L 8.40625 55.90625 
L 8.40625 72.90625 
L 56.390625 72.90625 
z
" id="DejaVuSerif-55"/>
       </defs>
       <use transform="translate(0 0.63125)" xlink:href="#DejaVuSerif-49"/>
       <use transform="translate(63.623047 0.63125)" xlink:href="#DejaVuSerif-48"/>
       <use transform="translate(128.154453 36.965625)scale(0.7)" xlink:href="#DejaVuSerif-55"/>
      </g>
     </g>
    </g>
    <g id="ytick_7">
     <g id="line2d_19">
      <defs>
       <path d="M 0 0 
L -2 0 
" id="m419b87b1a6" style="stroke:#000000;stroke-width:0.6;"/>
      </defs>
      <g>
       <use style="stroke:#000000;stroke-width:0.6;" x="43.21399" xlink:href="#m419b87b1a6" y="175.762608"/>
      </g>
     </g>
    </g>
    <g id="ytick_8">
     <g id="line2d_20">
      <g>
       <use style="stroke:#000000;stroke-width:0.6;" x="43.21399" xlink:href="#m419b87b1a6" y="171.298845"/>
      </g>
     </g>
    </g>
    <g id="ytick_9">
     <g id="line2d_21">
      <g>
       <use style="stroke:#000000;stroke-width:0.6;" x="43.21399" xlink:href="#m419b87b1a6" y="168.131754"/>
      </g>
     </g>
    </g>
    <g id="ytick_10">
     <g id="line2d_22">
      <g>
       <use style="stroke:#000000;stroke-width:0.6;" x="43.21399" xlink:href="#m419b87b1a6" y="165.675168"/>
      </g>
     </g>
    </g>
    <g id="ytick_11">
     <g id="line2d_23">
      <g>
       <use style="stroke:#000000;stroke-width:0.6;" x="43.21399" xlink:href="#m419b87b1a6" y="163.667991"/>
      </g>
     </g>
    </g>
    <g id="ytick_12">
     <g id="line2d_24">
      <g>
       <use style="stroke:#000000;stroke-width:0.6;" x="43.21399" xlink:href="#m419b87b1a6" y="161.970947"/>
      </g>
     </g>
    </g>
    <g id="ytick_13">
     <g id="line2d_25">
      <g>
       <use style="stroke:#000000;stroke-width:0.6;" x="43.21399" xlink:href="#m419b87b1a6" y="160.500901"/>
      </g>
     </g>
    </g>
    <g id="ytick_14">
     <g id="line2d_26">
      <g>
       <use style="stroke:#000000;stroke-width:0.6;" x="43.21399" xlink:href="#m419b87b1a6" y="159.204228"/>
      </g>
     </g>
    </g>
    <g id="ytick_15">
     <g id="line2d_27">
      <g>
       <use style="stroke:#000000;stroke-width:0.6;" x="43.21399" xlink:href="#m419b87b1a6" y="150.413461"/>
      </g>
     </g>
    </g>
    <g id="ytick_16">
     <g id="line2d_28">
      <g>
       <use style="stroke:#000000;stroke-width:0.6;" x="43.21399" xlink:href="#m419b87b1a6" y="145.949698"/>
      </g>
     </g>
    </g>
    <g id="ytick_17">
     <g id="line2d_29">
      <g>
       <use style="stroke:#000000;stroke-width:0.6;" x="43.21399" xlink:href="#m419b87b1a6" y="142.782607"/>
      </g>
     </g>
    </g>
    <g id="ytick_18">
     <g id="line2d_30">
      <g>
       <use style="stroke:#000000;stroke-width:0.6;" x="43.21399" xlink:href="#m419b87b1a6" y="140.326021"/>
      </g>
     </g>
    </g>
    <g id="ytick_19">
     <g id="line2d_31">
      <g>
       <use style="stroke:#000000;stroke-width:0.6;" x="43.21399" xlink:href="#m419b87b1a6" y="138.318844"/>
      </g>
     </g>
    </g>
    <g id="ytick_20">
     <g id="line2d_32">
      <g>
       <use style="stroke:#000000;stroke-width:0.6;" x="43.21399" xlink:href="#m419b87b1a6" y="136.6218"/>
      </g>
     </g>
    </g>
    <g id="ytick_21">
     <g id="line2d_33">
      <g>
       <use style="stroke:#000000;stroke-width:0.6;" x="43.21399" xlink:href="#m419b87b1a6" y="135.151754"/>
      </g>
     </g>
    </g>
    <g id="ytick_22">
     <g id="line2d_34">
      <g>
       <use style="stroke:#000000;stroke-width:0.6;" x="43.21399" xlink:href="#m419b87b1a6" y="133.855081"/>
      </g>
     </g>
    </g>
    <g id="ytick_23">
     <g id="line2d_35">
      <g>
       <use style="stroke:#000000;stroke-width:0.6;" x="43.21399" xlink:href="#m419b87b1a6" y="125.064314"/>
      </g>
     </g>
    </g>
    <g id="ytick_24">
     <g id="line2d_36">
      <g>
       <use style="stroke:#000000;stroke-width:0.6;" x="43.21399" xlink:href="#m419b87b1a6" y="120.600551"/>
      </g>
     </g>
    </g>
    <g id="ytick_25">
     <g id="line2d_37">
      <g>
       <use style="stroke:#000000;stroke-width:0.6;" x="43.21399" xlink:href="#m419b87b1a6" y="117.43346"/>
      </g>
     </g>
    </g>
    <g id="ytick_26">
     <g id="line2d_38">
      <g>
       <use style="stroke:#000000;stroke-width:0.6;" x="43.21399" xlink:href="#m419b87b1a6" y="114.976874"/>
      </g>
     </g>
    </g>
    <g id="ytick_27">
     <g id="line2d_39">
      <g>
       <use style="stroke:#000000;stroke-width:0.6;" x="43.21399" xlink:href="#m419b87b1a6" y="112.969697"/>
      </g>
     </g>
    </g>
    <g id="ytick_28">
     <g id="line2d_40">
      <g>
       <use style="stroke:#000000;stroke-width:0.6;" x="43.21399" xlink:href="#m419b87b1a6" y="111.272653"/>
      </g>
     </g>
    </g>
    <g id="ytick_29">
     <g id="line2d_41">
      <g>
       <use style="stroke:#000000;stroke-width:0.6;" x="43.21399" xlink:href="#m419b87b1a6" y="109.802607"/>
      </g>
     </g>
    </g>
    <g id="ytick_30">
     <g id="line2d_42">
      <g>
       <use style="stroke:#000000;stroke-width:0.6;" x="43.21399" xlink:href="#m419b87b1a6" y="108.505934"/>
      </g>
     </g>
    </g>
    <g id="ytick_31">
     <g id="line2d_43">
      <g>
       <use style="stroke:#000000;stroke-width:0.6;" x="43.21399" xlink:href="#m419b87b1a6" y="99.715167"/>
      </g>
     </g>
    </g>
    <g id="ytick_32">
     <g id="line2d_44">
      <g>
       <use style="stroke:#000000;stroke-width:0.6;" x="43.21399" xlink:href="#m419b87b1a6" y="95.251404"/>
      </g>
     </g>
    </g>
    <g id="ytick_33">
     <g id="line2d_45">
      <g>
       <use style="stroke:#000000;stroke-width:0.6;" x="43.21399" xlink:href="#m419b87b1a6" y="92.084313"/>
      </g>
     </g>
    </g>
    <g id="ytick_34">
     <g id="line2d_46">
      <g>
       <use style="stroke:#000000;stroke-width:0.6;" x="43.21399" xlink:href="#m419b87b1a6" y="89.627727"/>
      </g>
     </g>
    </g>
    <g id="ytick_35">
     <g id="line2d_47">
      <g>
       <use style="stroke:#000000;stroke-width:0.6;" x="43.21399" xlink:href="#m419b87b1a6" y="87.62055"/>
      </g>
     </g>
    </g>
    <g id="ytick_36">
     <g id="line2d_48">
      <g>
       <use style="stroke:#000000;stroke-width:0.6;" x="43.21399" xlink:href="#m419b87b1a6" y="85.923506"/>
      </g>
     </g>
    </g>
    <g id="ytick_37">
     <g id="line2d_49">
      <g>
       <use style="stroke:#000000;stroke-width:0.6;" x="43.21399" xlink:href="#m419b87b1a6" y="84.453459"/>
      </g>
     </g>
    </g>
    <g id="ytick_38">
     <g id="line2d_50">
      <g>
       <use style="stroke:#000000;stroke-width:0.6;" x="43.21399" xlink:href="#m419b87b1a6" y="83.156787"/>
      </g>
     </g>
    </g>
    <g id="ytick_39">
     <g id="line2d_51">
      <g>
       <use style="stroke:#000000;stroke-width:0.6;" x="43.21399" xlink:href="#m419b87b1a6" y="74.36602"/>
      </g>
     </g>
    </g>
    <g id="ytick_40">
     <g id="line2d_52">
      <g>
       <use style="stroke:#000000;stroke-width:0.6;" x="43.21399" xlink:href="#m419b87b1a6" y="69.902256"/>
      </g>
     </g>
    </g>
    <g id="ytick_41">
     <g id="line2d_53">
      <g>
       <use style="stroke:#000000;stroke-width:0.6;" x="43.21399" xlink:href="#m419b87b1a6" y="66.735166"/>
      </g>
     </g>
    </g>
    <g id="ytick_42">
     <g id="line2d_54">
      <g>
       <use style="stroke:#000000;stroke-width:0.6;" x="43.21399" xlink:href="#m419b87b1a6" y="64.27858"/>
      </g>
     </g>
    </g>
    <g id="ytick_43">
     <g id="line2d_55">
      <g>
       <use style="stroke:#000000;stroke-width:0.6;" x="43.21399" xlink:href="#m419b87b1a6" y="62.271403"/>
      </g>
     </g>
    </g>
    <g id="ytick_44">
     <g id="line2d_56">
      <g>
       <use style="stroke:#000000;stroke-width:0.6;" x="43.21399" xlink:href="#m419b87b1a6" y="60.574359"/>
      </g>
     </g>
    </g>
    <g id="ytick_45">
     <g id="line2d_57">
      <g>
       <use style="stroke:#000000;stroke-width:0.6;" x="43.21399" xlink:href="#m419b87b1a6" y="59.104312"/>
      </g>
     </g>
    </g>
    <g id="ytick_46">
     <g id="line2d_58">
      <g>
       <use style="stroke:#000000;stroke-width:0.6;" x="43.21399" xlink:href="#m419b87b1a6" y="57.80764"/>
      </g>
     </g>
    </g>
    <g id="ytick_47">
     <g id="line2d_59">
      <g>
       <use style="stroke:#000000;stroke-width:0.6;" x="43.21399" xlink:href="#m419b87b1a6" y="49.016873"/>
      </g>
     </g>
    </g>
    <g id="ytick_48">
     <g id="line2d_60">
      <g>
       <use style="stroke:#000000;stroke-width:0.6;" x="43.21399" xlink:href="#m419b87b1a6" y="44.553109"/>
      </g>
     </g>
    </g>
    <g id="ytick_49">
     <g id="line2d_61">
      <g>
       <use style="stroke:#000000;stroke-width:0.6;" x="43.21399" xlink:href="#m419b87b1a6" y="41.386019"/>
      </g>
     </g>
    </g>
    <g id="ytick_50">
     <g id="line2d_62">
      <g>
       <use style="stroke:#000000;stroke-width:0.6;" x="43.21399" xlink:href="#m419b87b1a6" y="38.929433"/>
      </g>
     </g>
    </g>
    <g id="ytick_51">
     <g id="line2d_63">
      <g>
       <use style="stroke:#000000;stroke-width:0.6;" x="43.21399" xlink:href="#m419b87b1a6" y="36.922256"/>
      </g>
     </g>
    </g>
    <g id="ytick_52">
     <g id="line2d_64">
      <g>
       <use style="stroke:#000000;stroke-width:0.6;" x="43.21399" xlink:href="#m419b87b1a6" y="35.225212"/>
      </g>
     </g>
    </g>
    <g id="ytick_53">
     <g id="line2d_65">
      <g>
       <use style="stroke:#000000;stroke-width:0.6;" x="43.21399" xlink:href="#m419b87b1a6" y="33.755165"/>
      </g>
     </g>
    </g>
    <g id="ytick_54">
     <g id="line2d_66">
      <g>
       <use style="stroke:#000000;stroke-width:0.6;" x="43.21399" xlink:href="#m419b87b1a6" y="32.458493"/>
      </g>
     </g>
    </g>
    <g id="ytick_55">
     <g id="line2d_67">
      <g>
       <use style="stroke:#000000;stroke-width:0.6;" x="43.21399" xlink:href="#m419b87b1a6" y="23.667726"/>
      </g>
     </g>
    </g>
    <g id="ytick_56">
     <g id="line2d_68">
      <g>
       <use style="stroke:#000000;stroke-width:0.6;" x="43.21399" xlink:href="#m419b87b1a6" y="19.203962"/>
      </g>
     </g>
    </g>
    <g id="text_11">
     <!-- $EI$ -->
     <g transform="translate(12.118365 106.000937)rotate(-90)scale(0.12 -0.12)">
      <defs>
       <path d="M -1.515625 0 
L -0.53125 5.171875 
L 8.734375 5.171875 
L 20.90625 67.671875 
L 11.625 67.671875 
L 12.640625 72.90625 
L 71.34375 72.90625 
L 68.21875 56.6875 
L 62.203125 56.6875 
L 64.15625 66.890625 
L 30.671875 66.890625 
L 25.921875 42.484375 
L 49.8125 42.484375 
L 51.5625 51.609375 
L 57.5625 51.609375 
L 52.875 27.390625 
L 46.875 27.390625 
L 48.640625 36.53125 
L 24.75 36.53125 
L 18.84375 6 
L 53.125 6 
L 55.078125 16.21875 
L 61.078125 16.21875 
L 57.953125 0 
z
" id="DejaVuSerif-Italic-69"/>
       <path d="M 18.65625 5.171875 
L 27.9375 5.171875 
L 26.953125 0 
L -1.515625 0 
L -0.53125 5.171875 
L 8.734375 5.171875 
L 20.90625 67.671875 
L 11.625 67.671875 
L 12.640625 72.90625 
L 41.109375 72.90625 
L 40.09375 67.671875 
L 30.8125 67.671875 
z
" id="DejaVuSerif-Italic-73"/>
      </defs>
      <use transform="translate(0 0.09375)" xlink:href="#DejaVuSerif-Italic-69"/>
      <use transform="translate(72.998047 0.09375)" xlink:href="#DejaVuSerif-Italic-73"/>
     </g>
    </g>
   </g>
   <g id="line2d_69">
    <path clip-path="url(#pc89d87c1bc)" d="M 56.236002 153.4678 
L 62.292752 142.04451 
L 68.349502 133.932595 
L 74.406251 127.640542 
L 80.463001 122.500688 
L 86.519751 118.155937 
L 92.576501 114.392889 
L 98.633251 111.073856 
L 104.69 108.104841 
L 110.74675 105.418825 
L 116.8035 102.966353 
L 122.86025 100.709891 
L 128.917 98.620278 
L 134.97375 96.674414 
L 141.030499 94.853686 
L 147.087249 93.142878 
L 153.143999 91.529392 
L 159.200749 90.002681 
L 165.257499 88.553824 
L 171.314248 87.175211 
L 177.370998 85.860297 
L 183.427748 84.603413 
L 189.484498 83.399613 
" style="fill:none;stroke:#ff7f0e;stroke-linecap:square;stroke-width:1.5;"/>
   </g>
   <g id="line2d_70">
    <path clip-path="url(#pc89d87c1bc)" d="M 56.236002 172.839753 
L 62.292752 161.422776 
L 68.349502 155.466553 
L 74.406251 150.912866 
L 80.463001 147.225347 
L 86.519751 144.126189 
L 92.576501 141.452863 
L 98.633251 139.102056 
L 104.69 137.004013 
L 110.74675 135.109412 
L 116.8035 133.382098 
L 122.86025 131.794772 
L 128.917 130.326323 
L 134.97375 128.960082 
L 141.030499 127.682662 
L 147.087249 126.483148 
L 153.143999 125.352521 
L 159.200749 124.283246 
L 165.257499 123.268962 
L 171.314248 122.30425 
L 177.370998 121.384456 
L 183.427748 120.505551 
L 189.484498 119.664029 
" style="fill:none;stroke:#1f77b4;stroke-linecap:square;stroke-width:1.5;"/>
   </g>
   <g id="line2d_71">
    <path clip-path="url(#pc89d87c1bc)" d="M 56.236002 144.849223 
L 62.292752 131.435998 
L 68.349502 121.822363 
L 74.406251 114.333378 
L 80.463001 108.20135 
L 86.519751 103.010457 
L 92.576501 98.510304 
L 98.633251 94.538525 
L 104.69 90.983893 
L 110.74675 87.766913 
L 116.8035 84.828809 
L 122.86025 82.124911 
L 128.917 79.620478 
L 134.97375 77.287962 
L 141.030499 75.105152 
L 147.087249 73.05388 
L 153.143999 71.119098 
L 159.200749 69.288199 
L 165.257499 67.55052 
L 171.314248 65.89696 
L 177.370998 64.31969 
L 183.427748 62.811927 
L 189.484498 61.367755 
" style="fill:none;stroke:#9467bd;stroke-linecap:square;stroke-width:1.5;"/>
   </g>
   <g id="line2d_72">
    <path clip-path="url(#pc89d87c1bc)" d="M 56.236002 153.288272 
L 62.292752 141.826998 
L 68.349502 133.686304 
L 74.406251 127.371256 
L 80.463001 122.21231 
L 86.519751 117.851258 
L 92.576501 114.073998 
L 98.633251 110.742371 
L 104.69 107.762051 
L 110.74675 105.065782 
L 116.8035 102.60393 
L 122.86025 100.338823 
L 128.917 98.241195 
L 134.97375 96.287858 
L 141.030499 94.460132 
L 147.087249 92.742743 
L 153.143999 91.123046 
L 159.200749 89.590453 
L 165.257499 88.136013 
L 171.314248 86.752084 
L 177.370998 85.432098 
L 183.427748 84.170363 
L 189.484498 82.961916 
" style="fill:none;stroke:#2ca02c;stroke-linecap:square;stroke-width:1.5;"/>
   </g>
   <g id="line2d_73">
    <path clip-path="url(#pc89d87c1bc)" d="M 50.179252 132.434072 
L 51.390602 117.172365 
L 52.601952 101.910658 
L 53.813302 86.648951 
L 55.024652 71.387243 
L 56.236002 56.125536 
L 57.447352 40.863829 
L 58.658702 25.602122 
" style="fill:none;stroke:#ff0000;stroke-dasharray:5.55,2.4;stroke-dashoffset:0;stroke-width:1.5;"/>
   </g>
   <g id="line2d_74">
    <path clip-path="url(#pc89d87c1bc)" d="M 98.633251 120.659422 
" style="fill:none;stroke:#ff7f0e;stroke-linecap:square;stroke-width:1.5;"/>
    <defs>
     <path d="M -4 4 
L 4 -4 
M -4 -4 
L 4 4 
" id="m1fc7931125" style="stroke:#ff7f0e;"/>
    </defs>
    <g clip-path="url(#pc89d87c1bc)">
     <use style="fill:#ff7f0e;stroke:#ff7f0e;" x="98.633251" xlink:href="#m1fc7931125" y="120.659422"/>
    </g>
   </g>
   <g id="line2d_75">
    <path clip-path="url(#pc89d87c1bc)" d="M 97.421901 153.290824 
" style="fill:none;stroke:#1f77b4;stroke-linecap:square;stroke-width:1.5;"/>
    <defs>
     <path d="M -4 4 
L 4 -4 
M -4 -4 
L 4 4 
" id="m4485665152" style="stroke:#1f77b4;"/>
    </defs>
    <g clip-path="url(#pc89d87c1bc)">
     <use style="fill:#1f77b4;stroke:#1f77b4;" x="97.421901" xlink:href="#m4485665152" y="153.290824"/>
    </g>
   </g>
   <g id="line2d_76">
    <path clip-path="url(#pc89d87c1bc)" d="M 98.633251 97.258581 
" style="fill:none;stroke:#9467bd;stroke-linecap:square;stroke-width:1.5;"/>
    <defs>
     <path d="M -4 4 
L 4 -4 
M -4 -4 
L 4 4 
" id="m40bcf36d92" style="stroke:#9467bd;"/>
    </defs>
    <g clip-path="url(#pc89d87c1bc)">
     <use style="fill:#9467bd;stroke:#9467bd;" x="98.633251" xlink:href="#m40bcf36d92" y="97.258581"/>
    </g>
   </g>
   <g id="line2d_77">
    <path clip-path="url(#pc89d87c1bc)" d="M 183.427748 31.964346 
" style="fill:none;stroke:#2ca02c;stroke-linecap:square;stroke-width:1.5;"/>
    <defs>
     <path d="M -4 4 
L 4 -4 
M -4 -4 
L 4 4 
" id="mcad2d66223" style="stroke:#2ca02c;"/>
    </defs>
    <g clip-path="url(#pc89d87c1bc)">
     <use style="fill:#2ca02c;stroke:#2ca02c;" x="183.427748" xlink:href="#mcad2d66223" y="31.964346"/>
    </g>
   </g>
   <g id="patch_3">
    <path d="M 43.21399 180.201635 
L 43.21399 18.24024 
" style="fill:none;stroke:#000000;stroke-linecap:square;stroke-linejoin:miter;stroke-width:0.8;"/>
   </g>
   <g id="patch_4">
    <path d="M 196.44976 180.201635 
L 196.44976 18.24024 
" style="fill:none;stroke:#000000;stroke-linecap:square;stroke-linejoin:miter;stroke-width:0.8;"/>
   </g>
   <g id="patch_5">
    <path d="M 43.21399 180.201635 
L 196.44976 180.201635 
" style="fill:none;stroke:#000000;stroke-linecap:square;stroke-linejoin:miter;stroke-width:0.8;"/>
   </g>
   <g id="patch_6">
    <path d="M 43.21399 18.24024 
L 196.44976 18.24024 
" style="fill:none;stroke:#000000;stroke-linecap:square;stroke-linejoin:miter;stroke-width:0.8;"/>
   </g>
   <g id="text_12">
    <!-- $mCrd/|\mathcal{T}|=0.01$ -->
    <g transform="translate(73.031875 12.24024)scale(0.12 -0.12)">
     <defs>
      <path d="M 54.734375 41.796875 
Q 58.453125 47.515625 63.03125 50.421875 
Q 67.625 53.328125 73 53.328125 
Q 81.15625 53.328125 84.1875 48.25 
Q 85.984375 45.21875 85.984375 40.28125 
Q 85.984375 37.0625 85.203125 33.015625 
L 79.78125 5.171875 
L 87.890625 5.171875 
L 86.921875 0 
L 69.828125 0 
L 76.03125 31.984375 
Q 76.765625 35.796875 76.765625 38.53125 
Q 76.765625 41.546875 75.875 43.3125 
Q 74.21875 46.6875 68.796875 46.6875 
Q 62.796875 46.6875 58.765625 42.140625 
Q 54.734375 37.59375 53.03125 28.90625 
L 47.40625 0 
L 38.421875 0 
L 44.734375 32.328125 
Q 45.40625 35.984375 45.40625 38.625 
Q 45.40625 41.65625 44.53125 43.359375 
Q 42.828125 46.6875 37.40625 46.6875 
Q 31.390625 46.6875 27.359375 42.140625 
Q 23.34375 37.59375 21.625 28.90625 
L 16.015625 0 
L 7.03125 0 
L 16.109375 46.78125 
L 7.515625 46.78125 
L 8.5 51.90625 
L 26.078125 51.90625 
L 24.3125 42.671875 
Q 27.78125 47.859375 32.171875 50.59375 
Q 36.578125 53.328125 41.453125 53.328125 
Q 47.515625 53.328125 50.96875 50.3125 
Q 54.4375 47.3125 54.734375 41.796875 
z
" id="DejaVuSerif-Italic-109"/>
      <path d="M 67.1875 19.28125 
Q 61.96875 9.078125 53.34375 3.828125 
Q 44.734375 -1.421875 33.109375 -1.421875 
Q 25.984375 -1.421875 20.359375 1.015625 
Q 14.75 3.46875 10.9375 8.203125 
Q 6.546875 13.671875 5.21875 20.625 
Q 3.90625 27.59375 5.609375 36.375 
Q 8.9375 53.375 20.78125 63.796875 
Q 32.625 74.21875 48.6875 74.21875 
Q 54.640625 74.21875 61.0625 72.65625 
Q 67.484375 71.09375 74.609375 67.921875 
L 71.390625 51.125 
L 65.875 51.125 
Q 65.828125 60.296875 61.234375 64.640625 
Q 56.640625 69 46.828125 69 
Q 35.15625 69 27.53125 60.71875 
Q 19.921875 52.4375 16.796875 36.375 
Q 13.671875 20.359375 18.0625 12.078125 
Q 22.46875 3.8125 34.125 3.8125 
Q 42.28125 3.8125 48.3125 7.6875 
Q 54.34375 11.578125 58.203125 19.28125 
z
" id="DejaVuSerif-Italic-67"/>
      <path d="M 52.734375 52 
L 50.203125 39.015625 
L 45.015625 39.015625 
Q 45.171875 39.984375 45.171875 40.828125 
Q 45.171875 43.359375 44 44.78125 
Q 42.484375 46.6875 38.8125 46.6875 
Q 32.171875 46.6875 27.734375 42.09375 
Q 23.296875 37.5 21.625 28.90625 
L 16.015625 0 
L 7.03125 0 
L 16.109375 46.78125 
L 7.515625 46.78125 
L 8.5 51.90625 
L 26.078125 51.90625 
L 24.3125 42.671875 
Q 27.984375 48.09375 32.640625 50.703125 
Q 37.3125 53.328125 43.265625 53.328125 
Q 45.453125 53.328125 47.796875 52.984375 
Q 50.140625 52.640625 52.734375 52 
z
" id="DejaVuSerif-Italic-114"/>
      <path d="M 60.015625 75.984375 
L 45.265625 0 
L 36.28125 0 
L 37.84375 8.109375 
Q 34.234375 3.21875 29.71875 0.890625 
Q 25.203125 -1.421875 19.1875 -1.421875 
Q 9.625 -1.421875 5.03125 6.15625 
Q 1.953125 11.1875 1.953125 18.21875 
Q 1.953125 21.828125 2.78125 25.984375 
Q 5.171875 38.1875 12.6875 45.75 
Q 20.21875 53.328125 29.828125 53.328125 
Q 35.84375 53.328125 39.453125 51 
Q 43.0625 48.6875 44.78125 43.796875 
L 50 70.796875 
L 41.5 70.796875 
L 42.53125 75.984375 
z
M 40.828125 23.390625 
L 41.796875 28.515625 
Q 42.53125 32.328125 42.53125 35.40625 
Q 42.53125 39.84375 40.96875 42.78125 
Q 38.375 47.703125 31.546875 47.703125 
Q 24.609375 47.703125 19.984375 42.234375 
Q 15.375 36.765625 13.28125 25.984375 
Q 12.3125 21.046875 12.3125 17.234375 
Q 12.3125 12.703125 13.671875 9.71875 
Q 16.109375 4.203125 23.046875 4.203125 
Q 29.890625 4.203125 34.421875 9.109375 
Q 38.96875 14.015625 40.828125 23.390625 
z
" id="DejaVuSerif-Italic-100"/>
      <path d="M 25.875 72.90625 
L 33.6875 72.90625 
L 7.8125 -9.28125 
L 0 -9.28125 
z
" id="DejaVuSerif-47"/>
      <path d="M 71.203125 72.09375 
L 73 70.59375 
Q 64.59375 56.796875 42.90625 55.90625 
L 32.09375 18.703125 
Q 30.203125 12.296875 28.140625 8.390625 
Q 26.09375 4.5 23.1875 2.703125 
Q 20.296875 0.90625 17.75 0.453125 
Q 15.203125 0 10.796875 0 
L 11.703125 2.40625 
Q 14.59375 2.40625 16.546875 5.09375 
Q 18.5 7.796875 20.09375 13.59375 
L 29.40625 46 
Q 31.90625 55 31.90625 56.796875 
Q 31.90625 58.296875 30.84375 59.140625 
Q 29.796875 60 28.40625 60 
Q 23.40625 60 17.34375 57.25 
Q 11.296875 54.5 6.09375 47.703125 
L 4.09375 49.09375 
Q 10.59375 58.5 18.9375 62.390625 
Q 27.296875 66.296875 42.703125 66.296875 
Q 44.796875 66.296875 48.09375 66 
Q 51.40625 65.703125 52.796875 65.703125 
Q 67 65.703125 71.203125 72.09375 
z
" id="STIXNonUnicode-Italic-57920"/>
      <path d="M 10.59375 45.21875 
L 73.1875 45.21875 
L 73.1875 37.40625 
L 10.59375 37.40625 
z
M 10.59375 25.296875 
L 73.1875 25.296875 
L 73.1875 17.484375 
L 10.59375 17.484375 
z
" id="DejaVuSerif-61"/>
      <path d="M 9.421875 5.078125 
Q 9.421875 7.8125 11.28125 9.71875 
Q 13.140625 11.625 15.921875 11.625 
Q 18.609375 11.625 20.5 9.71875 
Q 22.40625 7.8125 22.40625 5.078125 
Q 22.40625 2.390625 20.5 0.484375 
Q 18.609375 -1.421875 15.921875 -1.421875 
Q 13.140625 -1.421875 11.28125 0.453125 
Q 9.421875 2.34375 9.421875 5.078125 
z
" id="DejaVuSerif-46"/>
     </defs>
     <use transform="translate(0 0.578125)" xlink:href="#DejaVuSerif-Italic-109"/>
     <use transform="translate(94.824219 0.578125)" xlink:href="#DejaVuSerif-Italic-67"/>
     <use transform="translate(171.337891 0.578125)" xlink:href="#DejaVuSerif-Italic-114"/>
     <use transform="translate(219.140625 0.578125)" xlink:href="#DejaVuSerif-Italic-100"/>
     <use transform="translate(283.154297 0.578125)" xlink:href="#DejaVuSerif-47"/>
     <use transform="translate(316.845703 0.578125)" xlink:href="#DejaVuSerif-124"/>
     <use transform="translate(350.537109 0.578125)" xlink:href="#STIXNonUnicode-Italic-57920"/>
     <use transform="translate(401.437103 0.578125)" xlink:href="#DejaVuSerif-124"/>
     <use transform="translate(454.093353 0.578125)" xlink:href="#DejaVuSerif-61"/>
     <use transform="translate(556.84726 0.578125)" xlink:href="#DejaVuSerif-48"/>
     <use transform="translate(620.470306 0.578125)" xlink:href="#DejaVuSerif-46"/>
     <use transform="translate(652.257416 0.578125)" xlink:href="#DejaVuSerif-48"/>
     <use transform="translate(715.880463 0.578125)" xlink:href="#DejaVuSerif-49"/>
    </g>
   </g>
   <g id="legend_1">
    <g id="patch_7">
     <path d="M 203.44976 83.773053 
L 282.99976 83.773053 
Q 284.99976 83.773053 284.99976 81.773053 
L 284.99976 25.24024 
Q 284.99976 23.24024 282.99976 23.24024 
L 203.44976 23.24024 
Q 201.44976 23.24024 201.44976 25.24024 
L 201.44976 81.773053 
Q 201.44976 83.773053 203.44976 83.773053 
z
" style="fill:#ffffff;opacity:0.8;stroke:#cccccc;stroke-linejoin:miter;"/>
    </g>
    <g id="line2d_78">
     <path d="M 205.44976 31.338678 
L 225.44976 31.338678 
" style="fill:none;stroke:#ff7f0e;stroke-linecap:square;stroke-width:1.5;"/>
    </g>
    <g id="line2d_79"/>
    <g id="text_13">
     <!-- Oldenburg -->
     <g transform="translate(225.54976 34.838678)scale(0.1 -0.1)">
      <defs>
       <path d="M 41.015625 3.8125 
Q 52.984375 3.8125 59.078125 12.03125 
Q 65.1875 20.265625 65.1875 36.375 
Q 65.1875 52.546875 59.078125 60.765625 
Q 52.984375 69 41.015625 69 
Q 29 69 22.890625 60.765625 
Q 16.796875 52.546875 16.796875 36.375 
Q 16.796875 20.265625 22.890625 12.03125 
Q 29 3.8125 41.015625 3.8125 
z
M 41.015625 -1.421875 
Q 33.59375 -1.421875 27.359375 1.015625 
Q 21.140625 3.46875 16.40625 8.203125 
Q 10.9375 13.671875 8.265625 20.609375 
Q 5.609375 27.546875 5.609375 36.375 
Q 5.609375 45.21875 8.265625 52.171875 
Q 10.9375 59.125 16.40625 64.59375 
Q 21.1875 69.390625 27.34375 71.796875 
Q 33.5 74.21875 41.015625 74.21875 
Q 56.890625 74.21875 66.65625 63.8125 
Q 76.421875 53.421875 76.421875 36.375 
Q 76.421875 27.640625 73.734375 20.625 
Q 71.046875 13.625 65.578125 8.203125 
Q 60.796875 3.421875 54.640625 1 
Q 48.484375 -1.421875 41.015625 -1.421875 
z
" id="DejaVuSerif-79"/>
       <path d="M 20.515625 5.171875 
L 29 5.171875 
L 29 0 
L 2.875 0 
L 2.875 5.171875 
L 11.53125 5.171875 
L 11.53125 70.796875 
L 2.875 70.796875 
L 2.875 75.984375 
L 20.515625 75.984375 
z
" id="DejaVuSerif-108"/>
       <path d="M 52.484375 5.171875 
L 61.078125 5.171875 
L 61.078125 0 
L 43.5 0 
L 43.5 8.109375 
Q 40.875 3.21875 36.796875 0.890625 
Q 32.71875 -1.421875 26.703125 -1.421875 
Q 17.140625 -1.421875 11.0625 6.171875 
Q 4.984375 13.765625 4.984375 25.984375 
Q 4.984375 38.1875 11.03125 45.75 
Q 17.09375 53.328125 26.703125 53.328125 
Q 32.71875 53.328125 36.796875 51 
Q 40.875 48.6875 43.5 43.796875 
L 43.5 70.796875 
L 35.015625 70.796875 
L 35.015625 75.984375 
L 52.484375 75.984375 
z
M 43.5 23.390625 
L 43.5 28.515625 
Q 43.5 37.84375 39.90625 42.765625 
Q 36.328125 47.703125 29.5 47.703125 
Q 22.5625 47.703125 19.015625 42.234375 
Q 15.484375 36.765625 15.484375 25.984375 
Q 15.484375 15.234375 19.015625 9.71875 
Q 22.5625 4.203125 29.5 4.203125 
Q 36.328125 4.203125 39.90625 9.109375 
Q 43.5 14.015625 43.5 23.390625 
z
" id="DejaVuSerif-100"/>
       <path d="M 54.203125 25 
L 15.484375 25 
L 15.484375 24.609375 
Q 15.484375 14.109375 19.4375 8.765625 
Q 23.390625 3.421875 31.109375 3.421875 
Q 37.015625 3.421875 40.796875 6.515625 
Q 44.578125 9.625 46.09375 15.71875 
L 53.328125 15.71875 
Q 51.171875 7.171875 45.375 2.875 
Q 39.59375 -1.421875 30.171875 -1.421875 
Q 18.796875 -1.421875 11.890625 6.078125 
Q 4.984375 13.578125 4.984375 25.984375 
Q 4.984375 38.28125 11.765625 45.796875 
Q 18.5625 53.328125 29.59375 53.328125 
Q 41.359375 53.328125 47.65625 46.0625 
Q 53.953125 38.8125 54.203125 25 
z
M 43.609375 30.171875 
Q 43.3125 39.265625 39.765625 43.875 
Q 36.234375 48.484375 29.59375 48.484375 
Q 23.390625 48.484375 19.828125 43.84375 
Q 16.265625 39.203125 15.484375 30.171875 
z
" id="DejaVuSerif-101"/>
       <path d="M 4.109375 0 
L 4.109375 5.171875 
L 12.203125 5.171875 
L 12.203125 46.6875 
L 3.609375 46.6875 
L 3.609375 51.90625 
L 21.1875 51.90625 
L 21.1875 42.671875 
Q 23.6875 47.953125 27.65625 50.640625 
Q 31.640625 53.328125 36.921875 53.328125 
Q 45.515625 53.328125 49.5625 48.390625 
Q 53.609375 43.453125 53.609375 33.015625 
L 53.609375 5.171875 
L 61.625 5.171875 
L 61.625 0 
L 36.8125 0 
L 36.8125 5.171875 
L 44.578125 5.171875 
L 44.578125 30.171875 
Q 44.578125 39.703125 42.234375 43.234375 
Q 39.890625 46.78125 33.984375 46.78125 
Q 27.734375 46.78125 24.453125 42.203125 
Q 21.1875 37.640625 21.1875 28.90625 
L 21.1875 5.171875 
L 29 5.171875 
L 29 0 
z
" id="DejaVuSerif-110"/>
       <path d="M 11.53125 5.171875 
L 11.53125 70.796875 
L 2.875 70.796875 
L 2.875 75.984375 
L 20.515625 75.984375 
L 20.515625 43.796875 
Q 23.140625 48.6875 27.21875 51 
Q 31.296875 53.328125 37.3125 53.328125 
Q 46.875 53.328125 52.921875 45.75 
Q 58.984375 38.1875 58.984375 25.984375 
Q 58.984375 13.765625 52.921875 6.171875 
Q 46.875 -1.421875 37.3125 -1.421875 
Q 31.296875 -1.421875 27.21875 0.890625 
Q 23.140625 3.21875 20.515625 8.109375 
L 20.515625 0 
L 2.875 0 
L 2.875 5.171875 
z
M 20.515625 23.390625 
Q 20.515625 14.015625 24.09375 9.109375 
Q 27.6875 4.203125 34.515625 4.203125 
Q 41.40625 4.203125 44.9375 9.71875 
Q 48.484375 15.234375 48.484375 25.984375 
Q 48.484375 36.765625 44.9375 42.234375 
Q 41.40625 47.703125 34.515625 47.703125 
Q 27.6875 47.703125 24.09375 42.765625 
Q 20.515625 37.84375 20.515625 28.515625 
z
" id="DejaVuSerif-98"/>
       <path d="M 35.40625 51.90625 
L 52.203125 51.90625 
L 52.203125 5.171875 
L 60.6875 5.171875 
L 60.6875 0 
L 43.21875 0 
L 43.21875 9.1875 
Q 40.71875 4 36.765625 1.28125 
Q 32.8125 -1.421875 27.59375 -1.421875 
Q 18.953125 -1.421875 14.875 3.484375 
Q 10.796875 8.40625 10.796875 18.890625 
L 10.796875 46.6875 
L 2.6875 46.6875 
L 2.6875 51.90625 
L 19.828125 51.90625 
L 19.828125 21.6875 
Q 19.828125 12.203125 22.140625 8.6875 
Q 24.46875 5.171875 30.421875 5.171875 
Q 36.671875 5.171875 39.9375 9.765625 
Q 43.21875 14.359375 43.21875 23.09375 
L 43.21875 46.6875 
L 35.40625 46.6875 
z
" id="DejaVuSerif-117"/>
       <path d="M 47.796875 52 
L 47.796875 39.015625 
L 42.625 39.015625 
Q 42.390625 42.875 40.484375 44.78125 
Q 38.578125 46.6875 34.90625 46.6875 
Q 28.265625 46.6875 24.71875 42.09375 
Q 21.1875 37.5 21.1875 28.90625 
L 21.1875 5.171875 
L 31.59375 5.171875 
L 31.59375 0 
L 4.109375 0 
L 4.109375 5.171875 
L 12.203125 5.171875 
L 12.203125 46.78125 
L 3.609375 46.78125 
L 3.609375 51.90625 
L 21.1875 51.90625 
L 21.1875 42.671875 
Q 23.828125 48.09375 27.96875 50.703125 
Q 32.125 53.328125 38.09375 53.328125 
Q 40.28125 53.328125 42.703125 52.984375 
Q 45.125 52.640625 47.796875 52 
z
" id="DejaVuSerif-114"/>
       <path d="M 52.484375 46.6875 
L 52.484375 1.125 
Q 52.484375 -10.0625 46.328125 -16.140625 
Q 40.1875 -22.21875 28.8125 -22.21875 
Q 23.6875 -22.21875 19 -21.28125 
Q 14.3125 -20.359375 10.015625 -18.5 
L 10.015625 -7.625 
L 14.703125 -7.625 
Q 15.578125 -12.703125 18.84375 -15.046875 
Q 22.125 -17.390625 28.21875 -17.390625 
Q 36.140625 -17.390625 39.8125 -12.921875 
Q 43.5 -8.453125 43.5 1.125 
L 43.5 8.109375 
Q 40.875 3.21875 36.796875 0.890625 
Q 32.71875 -1.421875 26.703125 -1.421875 
Q 17.140625 -1.421875 11.0625 6.171875 
Q 4.984375 13.765625 4.984375 25.984375 
Q 4.984375 38.1875 11.03125 45.75 
Q 17.09375 53.328125 26.703125 53.328125 
Q 32.71875 53.328125 36.796875 51 
Q 40.875 48.6875 43.5 43.796875 
L 43.5 51.90625 
L 61.078125 51.90625 
L 61.078125 46.6875 
z
M 43.5 28.515625 
Q 43.5 37.84375 39.90625 42.765625 
Q 36.328125 47.703125 29.5 47.703125 
Q 22.5625 47.703125 19.015625 42.234375 
Q 15.484375 36.765625 15.484375 25.984375 
Q 15.484375 15.234375 19.015625 9.71875 
Q 22.5625 4.203125 29.5 4.203125 
Q 36.328125 4.203125 39.90625 9.109375 
Q 43.5 14.015625 43.5 23.390625 
z
" id="DejaVuSerif-103"/>
      </defs>
      <use xlink:href="#DejaVuSerif-79"/>
      <use x="81.982422" xlink:href="#DejaVuSerif-108"/>
      <use x="113.964844" xlink:href="#DejaVuSerif-100"/>
      <use x="177.978516" xlink:href="#DejaVuSerif-101"/>
      <use x="237.158203" xlink:href="#DejaVuSerif-110"/>
      <use x="301.5625" xlink:href="#DejaVuSerif-98"/>
      <use x="365.576172" xlink:href="#DejaVuSerif-117"/>
      <use x="429.980469" xlink:href="#DejaVuSerif-114"/>
      <use x="477.783203" xlink:href="#DejaVuSerif-103"/>
     </g>
    </g>
    <g id="line2d_80">
     <path d="M 205.44976 42.15899 
L 225.44976 42.15899 
" style="fill:none;stroke:#1f77b4;stroke-linecap:square;stroke-width:1.5;"/>
    </g>
    <g id="line2d_81"/>
    <g id="text_14">
     <!-- Milan -->
     <g transform="translate(225.54976 45.65899)scale(0.1 -0.1)">
      <defs>
       <path d="M 5.515625 0 
L 5.515625 5.171875 
L 14.796875 5.171875 
L 14.796875 67.671875 
L 4.984375 67.671875 
L 4.984375 72.90625 
L 26.21875 72.90625 
L 51.8125 21 
L 77.390625 72.90625 
L 97.3125 72.90625 
L 97.3125 67.671875 
L 87.59375 67.671875 
L 87.59375 5.171875 
L 96.921875 5.171875 
L 96.921875 0 
L 68.40625 0 
L 68.40625 5.171875 
L 77.6875 5.171875 
L 77.6875 61.53125 
L 52.6875 10.6875 
L 45.796875 10.6875 
L 20.796875 61.53125 
L 20.796875 5.171875 
L 30.078125 5.171875 
L 30.078125 0 
z
" id="DejaVuSerif-77"/>
       <path d="M 9.71875 68.015625 
Q 9.71875 70.265625 11.34375 71.921875 
Q 12.984375 73.578125 15.28125 73.578125 
Q 17.53125 73.578125 19.15625 71.921875 
Q 20.796875 70.265625 20.796875 68.015625 
Q 20.796875 65.71875 19.1875 64.109375 
Q 17.578125 62.5 15.28125 62.5 
Q 12.984375 62.5 11.34375 64.109375 
Q 9.71875 65.71875 9.71875 68.015625 
z
M 21.1875 5.171875 
L 29.6875 5.171875 
L 29.6875 0 
L 3.609375 0 
L 3.609375 5.171875 
L 12.203125 5.171875 
L 12.203125 46.6875 
L 3.609375 46.6875 
L 3.609375 51.90625 
L 21.1875 51.90625 
z
" id="DejaVuSerif-105"/>
       <path d="M 39.796875 16.3125 
L 39.796875 27.296875 
L 28.21875 27.296875 
Q 21.53125 27.296875 18.25 24.40625 
Q 14.984375 21.53125 14.984375 15.578125 
Q 14.984375 10.15625 18.296875 6.984375 
Q 21.625 3.8125 27.296875 3.8125 
Q 32.90625 3.8125 36.34375 7.28125 
Q 39.796875 10.75 39.796875 16.3125 
z
M 48.78125 32.421875 
L 48.78125 5.171875 
L 56.78125 5.171875 
L 56.78125 0 
L 39.796875 0 
L 39.796875 5.609375 
Q 36.8125 2 32.90625 0.28125 
Q 29 -1.421875 23.78125 -1.421875 
Q 15.140625 -1.421875 10.0625 3.171875 
Q 4.984375 7.765625 4.984375 15.578125 
Q 4.984375 23.640625 10.796875 28.078125 
Q 16.609375 32.515625 27.203125 32.515625 
L 39.796875 32.515625 
L 39.796875 36.078125 
Q 39.796875 42 36.203125 45.234375 
Q 32.625 48.484375 26.125 48.484375 
Q 20.75 48.484375 17.578125 46.046875 
Q 14.40625 43.609375 13.625 38.8125 
L 8.984375 38.8125 
L 8.984375 49.3125 
Q 13.671875 51.3125 18.09375 52.3125 
Q 22.515625 53.328125 26.703125 53.328125 
Q 37.5 53.328125 43.140625 47.96875 
Q 48.78125 42.625 48.78125 32.421875 
z
" id="DejaVuSerif-97"/>
      </defs>
      <use xlink:href="#DejaVuSerif-77"/>
      <use x="102.392578" xlink:href="#DejaVuSerif-105"/>
      <use x="134.375" xlink:href="#DejaVuSerif-108"/>
      <use x="166.357422" xlink:href="#DejaVuSerif-97"/>
      <use x="225.976562" xlink:href="#DejaVuSerif-110"/>
     </g>
    </g>
    <g id="line2d_82">
     <path d="M 205.44976 52.837115 
L 225.44976 52.837115 
" style="fill:none;stroke:#9467bd;stroke-linecap:square;stroke-width:1.5;"/>
    </g>
    <g id="line2d_83"/>
    <g id="text_15">
     <!-- Herm. ST -->
     <g transform="translate(225.54976 56.337115)scale(0.1 -0.1)">
      <defs>
       <path d="M 5.515625 0 
L 5.515625 5.171875 
L 14.796875 5.171875 
L 14.796875 67.671875 
L 5.515625 67.671875 
L 5.515625 72.90625 
L 33.984375 72.90625 
L 33.984375 67.671875 
L 24.703125 67.671875 
L 24.703125 42.484375 
L 62.5 42.484375 
L 62.5 67.671875 
L 53.21875 67.671875 
L 53.21875 72.90625 
L 81.6875 72.90625 
L 81.6875 67.671875 
L 72.40625 67.671875 
L 72.40625 5.171875 
L 81.6875 5.171875 
L 81.6875 0 
L 53.21875 0 
L 53.21875 5.171875 
L 62.5 5.171875 
L 62.5 36.53125 
L 24.703125 36.53125 
L 24.703125 5.171875 
L 33.984375 5.171875 
L 33.984375 0 
z
" id="DejaVuSerif-72"/>
       <path d="M 51.8125 41.796875 
Q 54.390625 47.515625 58.421875 50.421875 
Q 62.453125 53.328125 67.828125 53.328125 
Q 75.984375 53.328125 79.984375 48.265625 
Q 83.984375 43.21875 83.984375 33.015625 
L 83.984375 5.171875 
L 92.09375 5.171875 
L 92.09375 0 
L 67.1875 0 
L 67.1875 5.171875 
L 75 5.171875 
L 75 31.984375 
Q 75 39.9375 72.65625 43.3125 
Q 70.3125 46.6875 64.890625 46.6875 
Q 58.890625 46.6875 55.734375 42.140625 
Q 52.59375 37.59375 52.59375 28.90625 
L 52.59375 5.171875 
L 60.40625 5.171875 
L 60.40625 0 
L 35.796875 0 
L 35.796875 5.171875 
L 43.609375 5.171875 
L 43.609375 32.328125 
Q 43.609375 40.09375 41.265625 43.390625 
Q 38.921875 46.6875 33.5 46.6875 
Q 27.484375 46.6875 24.328125 42.140625 
Q 21.1875 37.59375 21.1875 28.90625 
L 21.1875 5.171875 
L 29 5.171875 
L 29 0 
L 4.109375 0 
L 4.109375 5.171875 
L 12.203125 5.171875 
L 12.203125 46.78125 
L 3.609375 46.78125 
L 3.609375 51.90625 
L 21.1875 51.90625 
L 21.1875 42.671875 
Q 23.6875 47.859375 27.53125 50.59375 
Q 31.390625 53.328125 36.28125 53.328125 
Q 42.328125 53.328125 46.375 50.3125 
Q 50.4375 47.3125 51.8125 41.796875 
z
" id="DejaVuSerif-109"/>
       <path id="DejaVuSerif-32"/>
       <path d="M 9.28125 3.515625 
L 9.28125 20.125 
L 14.890625 20.0625 
Q 15.140625 11.765625 19.703125 7.78125 
Q 24.265625 3.8125 33.59375 3.8125 
Q 42.28125 3.8125 46.84375 7.25 
Q 51.421875 10.6875 51.421875 17.28125 
Q 51.421875 22.5625 48.65625 25.390625 
Q 45.90625 28.21875 37.015625 30.90625 
L 27.390625 33.796875 
Q 16.9375 36.96875 12.671875 41.703125 
Q 8.40625 46.4375 8.40625 54.6875 
Q 8.40625 63.96875 14.984375 69.09375 
Q 21.578125 74.21875 33.5 74.21875 
Q 38.578125 74.21875 44.625 73.109375 
Q 50.6875 72.015625 57.515625 69.921875 
L 57.515625 54.390625 
L 52 54.390625 
Q 51.171875 62.109375 46.84375 65.546875 
Q 42.53125 69 33.6875 69 
Q 25.984375 69 21.953125 65.84375 
Q 17.921875 62.703125 17.921875 56.6875 
Q 17.921875 51.46875 20.9375 48.484375 
Q 23.96875 45.515625 33.796875 42.578125 
L 42.828125 39.890625 
Q 52.734375 36.921875 56.953125 32.296875 
Q 61.1875 27.6875 61.1875 19.921875 
Q 61.1875 9.328125 54.390625 3.953125 
Q 47.609375 -1.421875 34.1875 -1.421875 
Q 28.171875 -1.421875 21.9375 -0.1875 
Q 15.71875 1.03125 9.28125 3.515625 
z
" id="DejaVuSerif-83"/>
       <path d="M 19.09375 0 
L 19.09375 5.171875 
L 28.421875 5.171875 
L 28.421875 67.09375 
L 6.984375 67.09375 
L 6.984375 55.71875 
L 0.984375 55.71875 
L 0.984375 72.90625 
L 65.71875 72.90625 
L 65.71875 55.71875 
L 59.71875 55.71875 
L 59.71875 67.09375 
L 38.28125 67.09375 
L 38.28125 5.171875 
L 47.609375 5.171875 
L 47.609375 0 
z
" id="DejaVuSerif-84"/>
      </defs>
      <use xlink:href="#DejaVuSerif-72"/>
      <use x="87.207031" xlink:href="#DejaVuSerif-101"/>
      <use x="146.386719" xlink:href="#DejaVuSerif-114"/>
      <use x="194.189453" xlink:href="#DejaVuSerif-109"/>
      <use x="289.013672" xlink:href="#DejaVuSerif-46"/>
      <use x="320.800781" xlink:href="#DejaVuSerif-32"/>
      <use x="352.587891" xlink:href="#DejaVuSerif-83"/>
      <use x="421.09375" xlink:href="#DejaVuSerif-84"/>
     </g>
    </g>
    <g id="line2d_84">
     <path d="M 205.44976 63.51524 
L 225.44976 63.51524 
" style="fill:none;stroke:#2ca02c;stroke-linecap:square;stroke-width:1.5;"/>
    </g>
    <g id="line2d_85"/>
    <g id="text_16">
     <!-- Herm. STA -->
     <g transform="translate(225.54976 67.01524)scale(0.1 -0.1)">
      <defs>
       <path d="M 20.015625 26.421875 
L 46.78125 26.421875 
L 33.40625 61.078125 
z
M -0.59375 0 
L -0.59375 5.171875 
L 5.8125 5.171875 
L 31.78125 72.90625 
L 39.984375 72.90625 
L 66.015625 5.171875 
L 73.1875 5.171875 
L 73.1875 0 
L 46.6875 0 
L 46.6875 5.171875 
L 54.78125 5.171875 
L 48.6875 21.1875 
L 18.015625 21.1875 
L 11.921875 5.171875 
L 19.921875 5.171875 
L 19.921875 0 
z
" id="DejaVuSerif-65"/>
      </defs>
      <use xlink:href="#DejaVuSerif-72"/>
      <use x="87.207031" xlink:href="#DejaVuSerif-101"/>
      <use x="146.386719" xlink:href="#DejaVuSerif-114"/>
      <use x="194.189453" xlink:href="#DejaVuSerif-109"/>
      <use x="289.013672" xlink:href="#DejaVuSerif-46"/>
      <use x="320.800781" xlink:href="#DejaVuSerif-32"/>
      <use x="352.587891" xlink:href="#DejaVuSerif-83"/>
      <use x="421.09375" xlink:href="#DejaVuSerif-84"/>
      <use x="482.292969" xlink:href="#DejaVuSerif-65"/>
     </g>
    </g>
    <g id="line2d_86">
     <path d="M 205.44976 74.193365 
L 225.44976 74.193365 
" style="fill:none;stroke:#ff0000;stroke-dasharray:5.55,2.4;stroke-dashoffset:0;stroke-width:1.5;"/>
    </g>
    <g id="line2d_87"/>
    <g id="text_17">
     <!-- $2^{|S|}$ -->
     <g transform="translate(225.54976 77.693365)scale(0.1 -0.1)">
      <use transform="translate(0 0.170313)" xlink:href="#DejaVuSerif-50"/>
      <use transform="translate(64.531406 36.504688)scale(0.7)" xlink:href="#DejaVuSerif-124"/>
      <use transform="translate(88.115391 36.504688)scale(0.7)" xlink:href="#DejaVuSerif-Italic-83"/>
      <use transform="translate(136.069492 36.504688)scale(0.7)" xlink:href="#DejaVuSerif-124"/>
     </g>
    </g>
   </g>
  </g>
 </g>
 <defs>
  <clipPath id="pc89d87c1bc">
   <rect height="161.961395" width="153.23577" x="43.21399" y="18.24024"/>
  </clipPath>
 </defs>
</svg>
