<?xml version="1.0" encoding="utf-8" standalone="no"?>
<!DOCTYPE svg PUBLIC "-//W3C//DTD SVG 1.1//EN"
  "http://www.w3.org/Graphics/SVG/1.1/DTD/svg11.dtd">
<!-- Created with matplotlib (https://matplotlib.org/) -->
<svg height="216pt" version="1.1" viewBox="0 0 288 216" width="288pt" xmlns="http://www.w3.org/2000/svg" xmlns:xlink="http://www.w3.org/1999/xlink">
 <metadata>
  <rdf:RDF xmlns:cc="http://creativecommons.org/ns#" xmlns:dc="http://purl.org/dc/elements/1.1/" xmlns:rdf="http://www.w3.org/1999/02/22-rdf-syntax-ns#">
   <cc:Work>
    <dc:type rdf:resource="http://purl.org/dc/dcmitype/StillImage"/>
    <dc:date>2021-11-08T14:33:21.597245</dc:date>
    <dc:format>image/svg+xml</dc:format>
    <dc:creator>
     <cc:Agent>
      <dc:title>Matplotlib v3.3.1, https://matplotlib.org/</dc:title>
     </cc:Agent>
    </dc:creator>
   </cc:Work>
  </rdf:RDF>
 </metadata>
 <defs>
  <style type="text/css">*{stroke-linecap:butt;stroke-linejoin:round;}</style>
 </defs>
 <g id="figure_1">
  <g id="patch_1">
   <path d="M 0 216 
L 288 216 
L 288 0 
L 0 0 
z
" style="fill:#ffffff;"/>
  </g>
  <g id="axes_1">
   <g id="patch_2">
    <path d="M 52.52024 178.77226 
L 284.99976 178.77226 
L 284.99976 5.380528 
L 52.52024 5.380528 
z
" style="fill:#ffffff;"/>
   </g>
   <g id="matplotlib.axis_1">
    <g id="xtick_1">
     <g id="line2d_1">
      <path clip-path="url(#p55ea761ba1)" d="M 63.087491 178.77226 
L 63.087491 5.380528 
" style="fill:none;stroke:#d3d3d3;stroke-linecap:square;stroke-width:0.3;"/>
     </g>
     <g id="line2d_2">
      <defs>
       <path d="M 0 0 
L 0 3.5 
" id="m7a15b5b8c0" style="stroke:#000000;stroke-width:0.8;"/>
      </defs>
      <g>
       <use style="stroke:#000000;stroke-width:0.8;" x="63.087491" xlink:href="#m7a15b5b8c0" y="178.77226"/>
      </g>
     </g>
     <g id="text_1">
      <!-- 16 -->
      <g transform="translate(55.452491 194.890385)scale(0.12 -0.12)">
       <defs>
        <path d="M 14.203125 0 
L 14.203125 5.171875 
L 26.90625 5.171875 
L 26.90625 65.828125 
L 12.203125 56.296875 
L 12.203125 62.703125 
L 29.984375 74.21875 
L 36.71875 74.21875 
L 36.71875 5.171875 
L 49.421875 5.171875 
L 49.421875 0 
z
" id="DejaVuSerif-49"/>
        <path d="M 32.71875 3.421875 
Q 39.59375 3.421875 43.296875 8.46875 
Q 47.015625 13.53125 47.015625 23 
Q 47.015625 32.46875 43.296875 37.515625 
Q 39.59375 42.578125 32.71875 42.578125 
Q 25.734375 42.578125 22.0625 37.6875 
Q 18.40625 32.8125 18.40625 23.578125 
Q 18.40625 13.875 22.109375 8.640625 
Q 25.828125 3.421875 32.71875 3.421875 
z
M 16.796875 40.140625 
Q 20.125 43.796875 24.3125 45.59375 
Q 28.515625 47.40625 33.796875 47.40625 
Q 44.671875 47.40625 51 40.859375 
Q 57.328125 34.328125 57.328125 23 
Q 57.328125 11.921875 50.515625 5.25 
Q 43.703125 -1.421875 32.328125 -1.421875 
Q 19.96875 -1.421875 13.328125 7.78125 
Q 6.6875 17 6.6875 34.078125 
Q 6.6875 53.21875 14.546875 63.71875 
Q 22.40625 74.21875 36.71875 74.21875 
Q 40.578125 74.21875 44.828125 73.484375 
Q 49.078125 72.75 53.515625 71.296875 
L 53.515625 59.28125 
L 48 59.28125 
Q 47.40625 64.203125 44.234375 66.796875 
Q 41.0625 69.390625 35.6875 69.390625 
Q 26.21875 69.390625 21.578125 62.203125 
Q 16.9375 55.03125 16.796875 40.140625 
z
" id="DejaVuSerif-54"/>
       </defs>
       <use xlink:href="#DejaVuSerif-49"/>
       <use x="63.623047" xlink:href="#DejaVuSerif-54"/>
      </g>
     </g>
    </g>
    <g id="xtick_2">
     <g id="line2d_3">
      <path clip-path="url(#p55ea761ba1)" d="M 115.923745 178.77226 
L 115.923745 5.380528 
" style="fill:none;stroke:#d3d3d3;stroke-linecap:square;stroke-width:0.3;"/>
     </g>
     <g id="line2d_4">
      <g>
       <use style="stroke:#000000;stroke-width:0.8;" x="115.923745" xlink:href="#m7a15b5b8c0" y="178.77226"/>
      </g>
     </g>
     <g id="text_2">
      <!-- 17 -->
      <g transform="translate(108.288745 194.890385)scale(0.12 -0.12)">
       <defs>
        <path d="M 56.390625 67.921875 
L 27.875 0 
L 20.609375 0 
L 47.796875 64.890625 
L 14.109375 64.890625 
L 14.109375 55.90625 
L 8.40625 55.90625 
L 8.40625 72.90625 
L 56.390625 72.90625 
z
" id="DejaVuSerif-55"/>
       </defs>
       <use xlink:href="#DejaVuSerif-49"/>
       <use x="63.623047" xlink:href="#DejaVuSerif-55"/>
      </g>
     </g>
    </g>
    <g id="xtick_3">
     <g id="line2d_5">
      <path clip-path="url(#p55ea761ba1)" d="M 168.76 178.77226 
L 168.76 5.380528 
" style="fill:none;stroke:#d3d3d3;stroke-linecap:square;stroke-width:0.3;"/>
     </g>
     <g id="line2d_6">
      <g>
       <use style="stroke:#000000;stroke-width:0.8;" x="168.76" xlink:href="#m7a15b5b8c0" y="178.77226"/>
      </g>
     </g>
     <g id="text_3">
      <!-- 18 -->
      <g transform="translate(161.125 194.890385)scale(0.12 -0.12)">
       <defs>
        <path d="M 46.578125 19.921875 
Q 46.578125 27.734375 42.6875 32.046875 
Q 38.8125 36.375 31.78125 36.375 
Q 24.75 36.375 20.875 32.046875 
Q 17 27.734375 17 19.921875 
Q 17 12.0625 20.875 7.734375 
Q 24.75 3.421875 31.78125 3.421875 
Q 38.8125 3.421875 42.6875 7.734375 
Q 46.578125 12.0625 46.578125 19.921875 
z
M 44.578125 55.328125 
Q 44.578125 61.96875 41.203125 65.671875 
Q 37.84375 69.390625 31.78125 69.390625 
Q 25.78125 69.390625 22.390625 65.671875 
Q 19 61.96875 19 55.328125 
Q 19 48.640625 22.390625 44.921875 
Q 25.78125 41.21875 31.78125 41.21875 
Q 37.84375 41.21875 41.203125 44.921875 
Q 44.578125 48.640625 44.578125 55.328125 
z
M 39.3125 38.8125 
Q 47.609375 37.703125 52.25 32.6875 
Q 56.890625 27.6875 56.890625 19.921875 
Q 56.890625 9.671875 50.390625 4.125 
Q 43.890625 -1.421875 31.78125 -1.421875 
Q 19.734375 -1.421875 13.203125 4.125 
Q 6.6875 9.671875 6.6875 19.921875 
Q 6.6875 27.6875 11.328125 32.6875 
Q 15.96875 37.703125 24.3125 38.8125 
Q 16.9375 40.140625 13 44.40625 
Q 9.078125 48.6875 9.078125 55.328125 
Q 9.078125 64.109375 15.125 69.15625 
Q 21.1875 74.21875 31.78125 74.21875 
Q 42.390625 74.21875 48.4375 69.15625 
Q 54.5 64.109375 54.5 55.328125 
Q 54.5 48.6875 50.5625 44.40625 
Q 46.625 40.140625 39.3125 38.8125 
z
" id="DejaVuSerif-56"/>
       </defs>
       <use xlink:href="#DejaVuSerif-49"/>
       <use x="63.623047" xlink:href="#DejaVuSerif-56"/>
      </g>
     </g>
    </g>
    <g id="xtick_4">
     <g id="line2d_7">
      <path clip-path="url(#p55ea761ba1)" d="M 221.596255 178.77226 
L 221.596255 5.380528 
" style="fill:none;stroke:#d3d3d3;stroke-linecap:square;stroke-width:0.3;"/>
     </g>
     <g id="line2d_8">
      <g>
       <use style="stroke:#000000;stroke-width:0.8;" x="221.596255" xlink:href="#m7a15b5b8c0" y="178.77226"/>
      </g>
     </g>
     <g id="text_4">
      <!-- 19 -->
      <g transform="translate(213.961255 194.890385)scale(0.12 -0.12)">
       <defs>
        <path d="M 46.78125 32.671875 
Q 43.5 29 39.25 27.1875 
Q 35.015625 25.390625 29.6875 25.390625 
Q 18.84375 25.390625 12.5625 31.9375 
Q 6.296875 38.484375 6.296875 49.8125 
Q 6.296875 60.890625 13.109375 67.546875 
Q 19.921875 74.21875 31.296875 74.21875 
Q 43.65625 74.21875 50.265625 65.015625 
Q 56.890625 55.8125 56.890625 38.71875 
Q 56.890625 19.578125 49.015625 9.078125 
Q 41.15625 -1.421875 26.90625 -1.421875 
Q 23.046875 -1.421875 18.796875 -0.6875 
Q 14.546875 0.046875 10.109375 1.515625 
L 10.109375 13.625 
L 15.578125 13.625 
Q 16.21875 8.6875 19.390625 6.046875 
Q 22.5625 3.421875 27.875 3.421875 
Q 37.359375 3.421875 41.984375 10.5625 
Q 46.625 17.71875 46.78125 32.671875 
z
M 30.90625 69.390625 
Q 23.96875 69.390625 20.28125 64.328125 
Q 16.609375 59.28125 16.609375 49.8125 
Q 16.609375 40.328125 20.28125 35.25 
Q 23.96875 30.171875 30.90625 30.171875 
Q 37.84375 30.171875 41.53125 35.078125 
Q 45.21875 39.984375 45.21875 49.21875 
Q 45.21875 58.9375 41.5 64.15625 
Q 37.796875 69.390625 30.90625 69.390625 
z
" id="DejaVuSerif-57"/>
       </defs>
       <use xlink:href="#DejaVuSerif-49"/>
       <use x="63.623047" xlink:href="#DejaVuSerif-57"/>
      </g>
     </g>
    </g>
    <g id="xtick_5">
     <g id="line2d_9">
      <path clip-path="url(#p55ea761ba1)" d="M 274.432509 178.77226 
L 274.432509 5.380528 
" style="fill:none;stroke:#d3d3d3;stroke-linecap:square;stroke-width:0.3;"/>
     </g>
     <g id="line2d_10">
      <g>
       <use style="stroke:#000000;stroke-width:0.8;" x="274.432509" xlink:href="#m7a15b5b8c0" y="178.77226"/>
      </g>
     </g>
     <g id="text_5">
      <!-- 20 -->
      <g transform="translate(266.797509 194.890385)scale(0.12 -0.12)">
       <defs>
        <path d="M 12.796875 55.515625 
L 7.328125 55.515625 
L 7.328125 68.5 
Q 12.546875 71.296875 17.84375 72.75 
Q 23.140625 74.21875 28.21875 74.21875 
Q 39.59375 74.21875 46.1875 68.703125 
Q 52.78125 63.1875 52.78125 53.71875 
Q 52.78125 43.015625 37.84375 28.125 
Q 36.671875 27 36.078125 26.421875 
L 17.671875 8.015625 
L 48.09375 8.015625 
L 48.09375 17 
L 53.8125 17 
L 53.8125 0 
L 6.78125 0 
L 6.78125 5.328125 
L 28.90625 27.390625 
Q 36.234375 34.71875 39.359375 40.84375 
Q 42.484375 46.96875 42.484375 53.71875 
Q 42.484375 61.078125 38.640625 65.234375 
Q 34.8125 69.390625 28.078125 69.390625 
Q 21.09375 69.390625 17.28125 65.921875 
Q 13.484375 62.453125 12.796875 55.515625 
z
" id="DejaVuSerif-50"/>
        <path d="M 31.78125 3.421875 
Q 39.265625 3.421875 42.96875 11.625 
Q 46.6875 19.828125 46.6875 36.375 
Q 46.6875 52.984375 42.96875 61.1875 
Q 39.265625 69.390625 31.78125 69.390625 
Q 24.3125 69.390625 20.59375 61.1875 
Q 16.890625 52.984375 16.890625 36.375 
Q 16.890625 19.828125 20.59375 11.625 
Q 24.3125 3.421875 31.78125 3.421875 
z
M 31.78125 -1.421875 
Q 19.921875 -1.421875 13.25 8.53125 
Q 6.59375 18.5 6.59375 36.375 
Q 6.59375 54.296875 13.25 64.25 
Q 19.921875 74.21875 31.78125 74.21875 
Q 43.703125 74.21875 50.34375 64.25 
Q 56.984375 54.296875 56.984375 36.375 
Q 56.984375 18.5 50.34375 8.53125 
Q 43.703125 -1.421875 31.78125 -1.421875 
z
" id="DejaVuSerif-48"/>
       </defs>
       <use xlink:href="#DejaVuSerif-50"/>
       <use x="63.623047" xlink:href="#DejaVuSerif-48"/>
      </g>
     </g>
    </g>
    <g id="text_6">
     <!-- $mSup$ -->
     <g transform="translate(151.24 210.47976)scale(0.12 -0.12)">
      <defs>
       <path d="M 54.734375 41.796875 
Q 58.453125 47.515625 63.03125 50.421875 
Q 67.625 53.328125 73 53.328125 
Q 81.15625 53.328125 84.1875 48.25 
Q 85.984375 45.21875 85.984375 40.28125 
Q 85.984375 37.0625 85.203125 33.015625 
L 79.78125 5.171875 
L 87.890625 5.171875 
L 86.921875 0 
L 69.828125 0 
L 76.03125 31.984375 
Q 76.765625 35.796875 76.765625 38.53125 
Q 76.765625 41.546875 75.875 43.3125 
Q 74.21875 46.6875 68.796875 46.6875 
Q 62.796875 46.6875 58.765625 42.140625 
Q 54.734375 37.59375 53.03125 28.90625 
L 47.40625 0 
L 38.421875 0 
L 44.734375 32.328125 
Q 45.40625 35.984375 45.40625 38.625 
Q 45.40625 41.65625 44.53125 43.359375 
Q 42.828125 46.6875 37.40625 46.6875 
Q 31.390625 46.6875 27.359375 42.140625 
Q 23.34375 37.59375 21.625 28.90625 
L 16.015625 0 
L 7.03125 0 
L 16.109375 46.78125 
L 7.515625 46.78125 
L 8.5 51.90625 
L 26.078125 51.90625 
L 24.3125 42.671875 
Q 27.78125 47.859375 32.171875 50.59375 
Q 36.578125 53.328125 41.453125 53.328125 
Q 47.515625 53.328125 50.96875 50.3125 
Q 54.4375 47.3125 54.734375 41.796875 
z
" id="DejaVuSerif-Italic-109"/>
       <path d="M 2.875 3.515625 
L 6.109375 20.125 
L 11.71875 20.0625 
Q 10.359375 11.765625 14.140625 7.78125 
Q 17.921875 3.8125 27.25 3.8125 
Q 35.9375 3.8125 41.1875 7.25 
Q 46.4375 10.6875 47.703125 17.28125 
Q 48.734375 22.5625 46.5 25.390625 
Q 44.28125 28.21875 35.9375 30.90625 
L 26.90625 33.796875 
Q 17.046875 36.96875 13.703125 41.703125 
Q 10.359375 46.4375 11.96875 54.6875 
Q 13.765625 63.96875 21.359375 69.09375 
Q 28.953125 74.21875 40.875 74.21875 
Q 45.953125 74.21875 51.78125 73.109375 
Q 57.625 72.015625 64.015625 69.921875 
L 61.03125 54.390625 
L 55.515625 54.390625 
Q 56.15625 62.109375 52.515625 65.546875 
Q 48.875 69 40.046875 69 
Q 32.328125 69 27.6875 65.84375 
Q 23.046875 62.703125 21.875 56.6875 
Q 20.84375 51.46875 23.28125 48.484375 
Q 25.734375 45.515625 35.015625 42.578125 
L 43.5 39.890625 
Q 52.828125 36.921875 56.140625 32.296875 
Q 59.46875 27.6875 57.953125 19.921875 
Q 55.90625 9.328125 48.0625 3.953125 
Q 40.234375 -1.421875 26.8125 -1.421875 
Q 20.796875 -1.421875 14.8125 -0.1875 
Q 8.84375 1.03125 2.875 3.515625 
z
" id="DejaVuSerif-Italic-83"/>
       <path d="M 48.390625 51.90625 
L 57.375 51.90625 
L 48.296875 5.171875 
L 56.78125 5.171875 
L 55.8125 0 
L 38.328125 0 
L 40.09375 9.1875 
Q 36.578125 4 32.109375 1.28125 
Q 27.640625 -1.421875 22.40625 -1.421875 
Q 13.765625 -1.421875 10.640625 3.515625 
Q 8.734375 6.453125 8.734375 11.46875 
Q 8.734375 14.75 9.578125 18.890625 
L 14.9375 46.6875 
L 6.84375 46.6875 
L 7.859375 51.90625 
L 25 51.90625 
L 19.140625 21.6875 
Q 18.171875 16.65625 18.171875 13.328125 
Q 18.171875 10.359375 18.953125 8.6875 
Q 20.5625 5.171875 26.515625 5.171875 
Q 32.765625 5.171875 36.9375 9.765625 
Q 41.109375 14.359375 42.78125 23.09375 
z
" id="DejaVuSerif-Italic-117"/>
       <path d="M 22.90625 28.515625 
L 21.875 23.390625 
Q 21.140625 19.53125 21.140625 16.453125 
Q 21.140625 12.015625 22.703125 9.078125 
Q 25.34375 4.203125 32.171875 4.203125 
Q 39.0625 4.203125 43.671875 9.71875 
Q 48.296875 15.234375 50.390625 25.984375 
Q 51.3125 30.90625 51.3125 34.765625 
Q 51.3125 39.265625 50 42.234375 
Q 47.515625 47.703125 40.625 47.703125 
Q 33.796875 47.703125 29.25 42.765625 
Q 24.703125 37.84375 22.90625 28.515625 
z
M 17.4375 46.6875 
L 8.796875 46.6875 
L 9.8125 51.90625 
L 27.4375 51.90625 
L 25.875 43.796875 
Q 29.4375 48.6875 33.984375 51 
Q 38.53125 53.328125 44.53125 53.328125 
Q 54.109375 53.328125 58.640625 45.75 
Q 61.671875 40.765625 61.671875 33.796875 
Q 61.671875 30.125 60.890625 25.984375 
Q 58.5 13.765625 50.96875 6.171875 
Q 43.453125 -1.421875 33.890625 -1.421875 
Q 27.875 -1.421875 24.234375 0.890625 
Q 20.609375 3.21875 18.953125 8.109375 
L 13.28125 -20.796875 
L 4.296875 -20.796875 
z
" id="DejaVuSerif-Italic-112"/>
      </defs>
      <use transform="translate(0 0.78125)" xlink:href="#DejaVuSerif-Italic-109"/>
      <use transform="translate(94.824219 0.78125)" xlink:href="#DejaVuSerif-Italic-83"/>
      <use transform="translate(163.330078 0.78125)" xlink:href="#DejaVuSerif-Italic-117"/>
      <use transform="translate(227.734375 0.78125)" xlink:href="#DejaVuSerif-Italic-112"/>
     </g>
    </g>
   </g>
   <g id="matplotlib.axis_2">
    <g id="ytick_1">
     <g id="line2d_11">
      <path clip-path="url(#p55ea761ba1)" d="M 52.52024 146.190397 
L 284.99976 146.190397 
" style="fill:none;stroke:#d3d3d3;stroke-linecap:square;stroke-width:0.3;"/>
     </g>
     <g id="line2d_12">
      <defs>
       <path d="M 0 0 
L -3.5 0 
" id="m7aa05989f6" style="stroke:#000000;stroke-width:0.8;"/>
      </defs>
      <g>
       <use style="stroke:#000000;stroke-width:0.8;" x="52.52024" xlink:href="#m7aa05989f6" y="146.190397"/>
      </g>
     </g>
     <g id="text_7">
      <!-- $\mathdefault{10^{4}}$ -->
      <g transform="translate(24.40024 150.749459)scale(0.12 -0.12)">
       <defs>
        <path d="M 34.90625 24.703125 
L 34.90625 63.484375 
L 10.015625 24.703125 
z
M 56.390625 0 
L 23.1875 0 
L 23.1875 5.171875 
L 34.90625 5.171875 
L 34.90625 19.484375 
L 3.078125 19.484375 
L 3.078125 24.8125 
L 35.015625 74.21875 
L 44.671875 74.21875 
L 44.671875 24.703125 
L 58.59375 24.703125 
L 58.59375 19.484375 
L 44.671875 19.484375 
L 44.671875 5.171875 
L 56.390625 5.171875 
z
" id="DejaVuSerif-52"/>
       </defs>
       <use transform="translate(0 0.7125)" xlink:href="#DejaVuSerif-49"/>
       <use transform="translate(63.623047 0.7125)" xlink:href="#DejaVuSerif-48"/>
       <use transform="translate(128.154453 37.046875)scale(0.7)" xlink:href="#DejaVuSerif-52"/>
      </g>
     </g>
    </g>
    <g id="ytick_2">
     <g id="line2d_13">
      <path clip-path="url(#p55ea761ba1)" d="M 52.52024 99.9804 
L 284.99976 99.9804 
" style="fill:none;stroke:#d3d3d3;stroke-linecap:square;stroke-width:0.3;"/>
     </g>
     <g id="line2d_14">
      <g>
       <use style="stroke:#000000;stroke-width:0.8;" x="52.52024" xlink:href="#m7aa05989f6" y="99.9804"/>
      </g>
     </g>
     <g id="text_8">
      <!-- $\mathdefault{10^{6}}$ -->
      <g transform="translate(24.40024 104.539462)scale(0.12 -0.12)">
       <use transform="translate(0 0.7125)" xlink:href="#DejaVuSerif-49"/>
       <use transform="translate(63.623047 0.7125)" xlink:href="#DejaVuSerif-48"/>
       <use transform="translate(128.154453 37.046875)scale(0.7)" xlink:href="#DejaVuSerif-54"/>
      </g>
     </g>
    </g>
    <g id="ytick_3">
     <g id="line2d_15">
      <path clip-path="url(#p55ea761ba1)" d="M 52.52024 53.770403 
L 284.99976 53.770403 
" style="fill:none;stroke:#d3d3d3;stroke-linecap:square;stroke-width:0.3;"/>
     </g>
     <g id="line2d_16">
      <g>
       <use style="stroke:#000000;stroke-width:0.8;" x="52.52024" xlink:href="#m7aa05989f6" y="53.770403"/>
      </g>
     </g>
     <g id="text_9">
      <!-- $\mathdefault{10^{8}}$ -->
      <g transform="translate(24.40024 58.329466)scale(0.12 -0.12)">
       <use transform="translate(0 0.7125)" xlink:href="#DejaVuSerif-49"/>
       <use transform="translate(63.623047 0.7125)" xlink:href="#DejaVuSerif-48"/>
       <use transform="translate(128.154453 37.046875)scale(0.7)" xlink:href="#DejaVuSerif-56"/>
      </g>
     </g>
    </g>
    <g id="ytick_4">
     <g id="line2d_17">
      <path clip-path="url(#p55ea761ba1)" d="M 52.52024 7.560406 
L 284.99976 7.560406 
" style="fill:none;stroke:#d3d3d3;stroke-linecap:square;stroke-width:0.3;"/>
     </g>
     <g id="line2d_18">
      <g>
       <use style="stroke:#000000;stroke-width:0.8;" x="52.52024" xlink:href="#m7aa05989f6" y="7.560406"/>
      </g>
     </g>
     <g id="text_10">
      <!-- $\mathdefault{10^{10}}$ -->
      <g transform="translate(19.12024 12.119469)scale(0.12 -0.12)">
       <use transform="translate(0 0.7125)" xlink:href="#DejaVuSerif-49"/>
       <use transform="translate(63.623047 0.7125)" xlink:href="#DejaVuSerif-48"/>
       <use transform="translate(128.154453 37.046875)scale(0.7)" xlink:href="#DejaVuSerif-49"/>
       <use transform="translate(172.690586 37.046875)scale(0.7)" xlink:href="#DejaVuSerif-48"/>
      </g>
     </g>
    </g>
    <g id="text_11">
     <!-- $|\mathcal{P}|$ -->
     <g transform="translate(12.24024 100.176394)rotate(-90)scale(0.12 -0.12)">
      <defs>
       <path d="M 20.796875 76.421875 
L 20.796875 -23.578125 
L 12.890625 -23.578125 
L 12.890625 76.421875 
z
" id="DejaVuSerif-124"/>
       <path d="M 29 66.203125 
L 38.90625 66.203125 
Q 47.09375 66.203125 52.890625 65.453125 
Q 58.703125 64.703125 62.203125 63.390625 
Q 65.703125 62.09375 67.640625 60 
Q 69.59375 57.90625 70.25 55.65625 
Q 70.90625 53.40625 70.90625 50.203125 
Q 70.90625 47 70 43.75 
Q 69.09375 40.5 66.390625 36.59375 
Q 63.703125 32.703125 59.5 29.75 
Q 55.296875 26.796875 48.046875 24.796875 
Q 40.796875 22.796875 31.40625 22.796875 
L 32.296875 25.203125 
Q 45.5 26.5 53.046875 33.140625 
Q 60.59375 39.796875 60.59375 49.796875 
Q 60.59375 56.59375 56.59375 59.390625 
Q 52.59375 62.203125 42.796875 62.203125 
Q 40.296875 62.203125 39.25 61 
Q 38.203125 59.796875 37.203125 56.203125 
L 24.59375 11.90625 
Q 21.203125 0 5.5 0 
L 6.296875 2.40625 
Q 9.296875 2.40625 10.9375 4.953125 
Q 12.59375 7.5 14.5 14.09375 
L 23.40625 44.59375 
Q 26.40625 55.203125 26.40625 57.203125 
Q 26.40625 58.90625 25.40625 59.75 
Q 24.40625 60.59375 21.796875 60.59375 
Q 18.796875 60.59375 15.890625 59.640625 
Q 13 58.703125 11.546875 57.796875 
Q 10.09375 56.90625 7.9375 55.203125 
Q 5.796875 53.5 5.59375 53.40625 
L 3.796875 55.296875 
Q 15.203125 66.203125 29 66.203125 
z
" id="STIXNonUnicode-Italic-57916"/>
      </defs>
      <use transform="translate(0 0.578125)" xlink:href="#DejaVuSerif-124"/>
      <use transform="translate(33.691406 0.578125)" xlink:href="#STIXNonUnicode-Italic-57916"/>
      <use transform="translate(100.391403 0.578125)" xlink:href="#DejaVuSerif-124"/>
     </g>
    </g>
   </g>
   <g id="line2d_19">
    <path clip-path="url(#p55ea761ba1)" d="M 274.432509 170.890818 
L 221.596255 158.338629 
L 168.76 147.577429 
L 115.923745 138.040295 
L 63.087491 129.684647 
" style="fill:none;stroke:#1f77b4;stroke-linecap:square;stroke-width:1.5;"/>
   </g>
   <g id="line2d_20">
    <path clip-path="url(#p55ea761ba1)" d="M 274.432509 44.951053 
L 221.596255 35.166019 
L 168.76 24.660317 
L 115.923745 13.26197 
L 63.087491 13.26197 
" style="fill:none;stroke:#ff7f0e;stroke-linecap:square;stroke-width:1.5;"/>
   </g>
   <g id="patch_3">
    <path d="M 52.52024 178.77226 
L 52.52024 5.380528 
" style="fill:none;stroke:#000000;stroke-linecap:square;stroke-linejoin:miter;stroke-width:0.8;"/>
   </g>
   <g id="patch_4">
    <path d="M 284.99976 178.77226 
L 284.99976 5.380528 
" style="fill:none;stroke:#000000;stroke-linecap:square;stroke-linejoin:miter;stroke-width:0.8;"/>
   </g>
   <g id="patch_5">
    <path d="M 52.52024 178.77226 
L 284.99976 178.77226 
" style="fill:none;stroke:#000000;stroke-linecap:square;stroke-linejoin:miter;stroke-width:0.8;"/>
   </g>
   <g id="patch_6">
    <path d="M 52.52024 5.380528 
L 284.99976 5.380528 
" style="fill:none;stroke:#000000;stroke-linecap:square;stroke-linejoin:miter;stroke-width:0.8;"/>
   </g>
   <g id="legend_1">
    <g id="patch_7">
     <path d="M 187.796635 108.254519 
L 277.99976 108.254519 
Q 279.99976 108.254519 279.99976 106.254519 
L 279.99976 77.898269 
Q 279.99976 75.898269 277.99976 75.898269 
L 187.796635 75.898269 
Q 185.796635 75.898269 185.796635 77.898269 
L 185.796635 106.254519 
Q 185.796635 108.254519 187.796635 108.254519 
z
" style="fill:#ffffff;opacity:0.8;stroke:#cccccc;stroke-linejoin:miter;"/>
    </g>
    <g id="line2d_21">
     <path d="M 189.796635 83.996706 
L 209.796635 83.996706 
" style="fill:none;stroke:#1f77b4;stroke-linecap:square;stroke-width:1.5;"/>
    </g>
    <g id="line2d_22"/>
    <g id="text_12">
     <!-- CTM -->
     <g transform="translate(217.796635 87.496706)scale(0.1 -0.1)">
      <defs>
       <path d="M 70.515625 19.28125 
Q 67.28125 9.078125 59.6875 3.828125 
Q 52.09375 -1.421875 40.484375 -1.421875 
Q 33.34375 -1.421875 27.234375 1.015625 
Q 21.140625 3.46875 16.40625 8.203125 
Q 10.9375 13.671875 8.265625 20.625 
Q 5.609375 27.59375 5.609375 36.375 
Q 5.609375 53.375 15.421875 63.796875 
Q 25.25 74.21875 41.3125 74.21875 
Q 47.265625 74.21875 54 72.65625 
Q 60.75 71.09375 68.5 67.921875 
L 68.5 51.125 
L 62.984375 51.125 
Q 61.1875 60.296875 55.734375 64.640625 
Q 50.296875 69 40.484375 69 
Q 28.8125 69 22.796875 60.71875 
Q 16.796875 52.4375 16.796875 36.375 
Q 16.796875 20.359375 22.796875 12.078125 
Q 28.8125 3.8125 40.484375 3.8125 
Q 48.640625 3.8125 53.90625 7.6875 
Q 59.1875 11.578125 61.53125 19.28125 
z
" id="DejaVuSerif-67"/>
       <path d="M 19.09375 0 
L 19.09375 5.171875 
L 28.421875 5.171875 
L 28.421875 67.09375 
L 6.984375 67.09375 
L 6.984375 55.71875 
L 0.984375 55.71875 
L 0.984375 72.90625 
L 65.71875 72.90625 
L 65.71875 55.71875 
L 59.71875 55.71875 
L 59.71875 67.09375 
L 38.28125 67.09375 
L 38.28125 5.171875 
L 47.609375 5.171875 
L 47.609375 0 
z
" id="DejaVuSerif-84"/>
       <path d="M 5.515625 0 
L 5.515625 5.171875 
L 14.796875 5.171875 
L 14.796875 67.671875 
L 4.984375 67.671875 
L 4.984375 72.90625 
L 26.21875 72.90625 
L 51.8125 21 
L 77.390625 72.90625 
L 97.3125 72.90625 
L 97.3125 67.671875 
L 87.59375 67.671875 
L 87.59375 5.171875 
L 96.921875 5.171875 
L 96.921875 0 
L 68.40625 0 
L 68.40625 5.171875 
L 77.6875 5.171875 
L 77.6875 61.53125 
L 52.6875 10.6875 
L 45.796875 10.6875 
L 20.796875 61.53125 
L 20.796875 5.171875 
L 30.078125 5.171875 
L 30.078125 0 
z
" id="DejaVuSerif-77"/>
      </defs>
      <use xlink:href="#DejaVuSerif-67"/>
      <use x="76.513672" xlink:href="#DejaVuSerif-84"/>
      <use x="143.212891" xlink:href="#DejaVuSerif-77"/>
     </g>
    </g>
    <g id="line2d_23">
     <path d="M 189.796635 98.674831 
L 209.796635 98.674831 
" style="fill:none;stroke:#ff7f0e;stroke-linecap:square;stroke-width:1.5;"/>
    </g>
    <g id="line2d_24"/>
    <g id="text_13">
     <!-- PFPGrowth -->
     <g transform="translate(217.796635 102.174831)scale(0.1 -0.1)">
      <defs>
       <path d="M 24.703125 37.109375 
L 37.59375 37.109375 
Q 44.875 37.109375 48.671875 41.03125 
Q 52.484375 44.96875 52.484375 52.390625 
Q 52.484375 59.859375 48.671875 63.765625 
Q 44.875 67.671875 37.59375 67.671875 
L 24.703125 67.671875 
z
M 5.515625 0 
L 5.515625 5.171875 
L 14.796875 5.171875 
L 14.796875 67.671875 
L 5.515625 67.671875 
L 5.515625 72.90625 
L 39.984375 72.90625 
Q 50.921875 72.90625 57.3125 67.359375 
Q 63.71875 61.8125 63.71875 52.390625 
Q 63.71875 43.015625 57.3125 37.453125 
Q 50.921875 31.890625 39.984375 31.890625 
L 24.703125 31.890625 
L 24.703125 5.171875 
L 35.984375 5.171875 
L 35.984375 0 
z
" id="DejaVuSerif-80"/>
       <path d="M 5.515625 0 
L 5.515625 5.171875 
L 14.796875 5.171875 
L 14.796875 67.671875 
L 5.515625 67.671875 
L 5.515625 72.90625 
L 65.1875 72.90625 
L 65.1875 56.6875 
L 59.1875 56.6875 
L 59.1875 66.890625 
L 24.703125 66.890625 
L 24.703125 42.484375 
L 49.609375 42.484375 
L 49.609375 51.609375 
L 55.609375 51.609375 
L 55.609375 27.390625 
L 49.609375 27.390625 
L 49.609375 36.53125 
L 24.703125 36.53125 
L 24.703125 5.171875 
L 36.375 5.171875 
L 36.375 0 
z
" id="DejaVuSerif-70"/>
       <path d="M 64.015625 51.125 
Q 62.3125 60.25 56.890625 64.625 
Q 51.46875 69 41.796875 69 
Q 29.203125 69 23 60.890625 
Q 16.796875 52.78125 16.796875 36.375 
Q 16.796875 20.3125 23.1875 12.0625 
Q 29.59375 3.8125 42 3.8125 
Q 47.515625 3.8125 52.53125 5.171875 
Q 57.5625 6.546875 62.109375 9.28125 
L 62.109375 28.078125 
L 48.390625 28.078125 
L 48.390625 33.296875 
L 72.015625 33.296875 
L 72.015625 6.109375 
Q 65.53125 2.34375 58.03125 0.453125 
Q 50.53125 -1.421875 42 -1.421875 
Q 25.484375 -1.421875 15.546875 8.90625 
Q 5.609375 19.234375 5.609375 36.375 
Q 5.609375 53.65625 15.5625 63.9375 
Q 25.53125 74.21875 42.390625 74.21875 
Q 48.640625 74.21875 55.296875 72.78125 
Q 61.96875 71.34375 69.484375 68.40625 
L 69.484375 51.125 
z
" id="DejaVuSerif-71"/>
       <path d="M 47.796875 52 
L 47.796875 39.015625 
L 42.625 39.015625 
Q 42.390625 42.875 40.484375 44.78125 
Q 38.578125 46.6875 34.90625 46.6875 
Q 28.265625 46.6875 24.71875 42.09375 
Q 21.1875 37.5 21.1875 28.90625 
L 21.1875 5.171875 
L 31.59375 5.171875 
L 31.59375 0 
L 4.109375 0 
L 4.109375 5.171875 
L 12.203125 5.171875 
L 12.203125 46.78125 
L 3.609375 46.78125 
L 3.609375 51.90625 
L 21.1875 51.90625 
L 21.1875 42.671875 
Q 23.828125 48.09375 27.96875 50.703125 
Q 32.125 53.328125 38.09375 53.328125 
Q 40.28125 53.328125 42.703125 52.984375 
Q 45.125 52.640625 47.796875 52 
z
" id="DejaVuSerif-114"/>
       <path d="M 30.078125 3.421875 
Q 37.3125 3.421875 40.984375 9.125 
Q 44.671875 14.84375 44.671875 25.984375 
Q 44.671875 37.109375 40.984375 42.796875 
Q 37.3125 48.484375 30.078125 48.484375 
Q 22.859375 48.484375 19.171875 42.796875 
Q 15.484375 37.109375 15.484375 25.984375 
Q 15.484375 14.84375 19.1875 9.125 
Q 22.90625 3.421875 30.078125 3.421875 
z
M 30.078125 -1.421875 
Q 18.75 -1.421875 11.859375 6.078125 
Q 4.984375 13.578125 4.984375 25.984375 
Q 4.984375 38.375 11.84375 45.84375 
Q 18.703125 53.328125 30.078125 53.328125 
Q 41.453125 53.328125 48.3125 45.84375 
Q 55.171875 38.375 55.171875 25.984375 
Q 55.171875 13.578125 48.3125 6.078125 
Q 41.453125 -1.421875 30.078125 -1.421875 
z
" id="DejaVuSerif-111"/>
       <path d="M 48 51.90625 
L 61.28125 11.375 
L 73 46.6875 
L 65.484375 46.6875 
L 65.484375 51.90625 
L 84.28125 51.90625 
L 84.28125 46.6875 
L 78.515625 46.6875 
L 63.09375 0 
L 55.609375 0 
L 42.828125 38.8125 
L 29.984375 0 
L 22.796875 0 
L 7.421875 46.6875 
L 1.609375 46.6875 
L 1.609375 51.90625 
L 25.09375 51.90625 
L 25.09375 46.6875 
L 16.703125 46.6875 
L 28.328125 11.375 
L 41.703125 51.90625 
z
" id="DejaVuSerif-119"/>
       <path d="M 10.796875 46.6875 
L 2.875 46.6875 
L 2.875 51.90625 
L 10.796875 51.90625 
L 10.796875 68.015625 
L 19.828125 68.015625 
L 19.828125 51.90625 
L 36.71875 51.90625 
L 36.71875 46.6875 
L 19.828125 46.6875 
L 19.828125 13.71875 
Q 19.828125 7.125 21.09375 5.265625 
Q 22.359375 3.421875 25.78125 3.421875 
Q 29.296875 3.421875 30.90625 5.484375 
Q 32.515625 7.5625 32.625 12.203125 
L 39.40625 12.203125 
Q 39.015625 5.125 35.546875 1.84375 
Q 32.078125 -1.421875 25 -1.421875 
Q 17.234375 -1.421875 14.015625 2.015625 
Q 10.796875 5.46875 10.796875 13.71875 
z
" id="DejaVuSerif-116"/>
       <path d="M 4.109375 0 
L 4.109375 5.171875 
L 12.203125 5.171875 
L 12.203125 70.796875 
L 3.609375 70.796875 
L 3.609375 75.984375 
L 21.1875 75.984375 
L 21.1875 42.671875 
Q 23.6875 47.953125 27.65625 50.640625 
Q 31.640625 53.328125 36.921875 53.328125 
Q 45.515625 53.328125 49.5625 48.390625 
Q 53.609375 43.453125 53.609375 33.015625 
L 53.609375 5.171875 
L 61.625 5.171875 
L 61.625 0 
L 36.8125 0 
L 36.8125 5.171875 
L 44.578125 5.171875 
L 44.578125 30.171875 
Q 44.578125 39.703125 42.25 43.1875 
Q 39.9375 46.6875 33.984375 46.6875 
Q 27.734375 46.6875 24.453125 42.140625 
Q 21.1875 37.59375 21.1875 28.90625 
L 21.1875 5.171875 
L 29 5.171875 
L 29 0 
z
" id="DejaVuSerif-104"/>
      </defs>
      <use xlink:href="#DejaVuSerif-80"/>
      <use x="67.285156" xlink:href="#DejaVuSerif-70"/>
      <use x="136.669922" xlink:href="#DejaVuSerif-80"/>
      <use x="203.955078" xlink:href="#DejaVuSerif-71"/>
      <use x="283.837891" xlink:href="#DejaVuSerif-114"/>
      <use x="331.640625" xlink:href="#DejaVuSerif-111"/>
      <use x="391.845703" xlink:href="#DejaVuSerif-119"/>
      <use x="477.441406" xlink:href="#DejaVuSerif-116"/>
      <use x="517.626953" xlink:href="#DejaVuSerif-104"/>
     </g>
    </g>
   </g>
  </g>
 </g>
 <defs>
  <clipPath id="p55ea761ba1">
   <rect height="173.391732" width="232.47952" x="52.52024" y="5.380528"/>
  </clipPath>
 </defs>
</svg>
